# This file uses centimeters as units for non-parametric coordinates.

mtllib imm5.mtl
g default
v 0.475811 0.032937 0.995587
v 0.475811 0.032937 -1.004413
v 0.464884 0.136893 0.995587
v 0.464884 0.136893 -1.004413
v 0.432583 0.236305 0.995587
v 0.432583 0.236305 -1.004413
v 0.380319 0.326830 0.995587
v 0.380319 0.326830 -1.004413
v 0.310376 0.404510 0.995587
v 0.310376 0.404510 -1.004413
v 0.225811 0.465950 0.995587
v 0.225811 0.465950 -1.004413
v 0.130319 0.508465 0.995587
v 0.130319 0.508465 -1.004413
v 0.028075 0.530198 0.995587
v 0.028075 0.530198 -1.004413
v -0.076454 0.530198 0.995587
v -0.076454 0.530198 -1.004413
v -0.178698 0.508465 0.995587
v -0.178698 0.508465 -1.004413
v -0.274189 0.465950 0.995587
v -0.274189 0.465950 -1.004413
v -0.358755 0.404510 0.995587
v -0.358755 0.404510 -1.004413
v -0.428698 0.326830 0.995587
v -0.428698 0.326830 -1.004413
v -0.480962 0.236305 0.995587
v -0.480962 0.236305 -1.004413
v -0.513263 0.136893 0.995587
v -0.513263 0.136893 -1.004413
v -0.524189 0.032937 0.995587
v -0.524189 0.032937 -1.004413
v -0.513263 -0.071019 0.995587
v -0.513263 -0.071019 -1.004413
v -0.480962 -0.170431 0.995587
v -0.480962 -0.170431 -1.004413
v -0.428698 -0.260955 0.995587
v -0.428698 -0.260955 -1.004413
v -0.358755 -0.338635 0.995587
v -0.358755 -0.338635 -1.004413
v -0.274189 -0.400076 0.995587
v -0.274189 -0.400076 -1.004413
v -0.178698 -0.442591 0.995587
v -0.178698 -0.442591 -1.004413
v -0.076454 -0.464324 0.995587
v -0.076454 -0.464324 -1.004413
v 0.028075 -0.464324 0.995587
v 0.028075 -0.464324 -1.004413
v 0.130319 -0.442591 0.995587
v 0.130319 -0.442591 -1.004413
v 0.225811 -0.400076 0.995587
v 0.225811 -0.400076 -1.004413
v 0.310376 -0.338635 0.995587
v 0.310376 -0.338635 -1.004413
v 0.380319 -0.260955 0.995587
v 0.380319 -0.260955 -1.004413
v 0.432583 -0.170431 0.995587
v 0.432583 -0.170431 -1.004413
v 0.464884 -0.071019 0.995587
v 0.464884 -0.071019 -1.004413
vn 0.000000 0.000000 1.000000
vn 0.000000 0.000000 1.000000
vn 0.000000 0.000000 1.000000
vn 0.000000 0.000000 1.000000
vn 0.000000 0.000000 1.000000
vn 0.000000 0.000000 1.000000
vn 0.000000 0.000000 1.000000
vn 0.000000 0.000000 1.000000
vn 0.000000 0.000000 1.000000
vn 0.000000 0.000000 1.000000
vn 0.000000 0.000000 1.000000
vn 0.000000 0.000000 1.000000
vn 0.000000 0.000000 1.000000
vn 0.000000 0.000000 1.000000
vn 0.000000 0.000000 1.000000
vn 0.000000 0.000000 1.000000
vn 0.000000 0.000000 1.000000
vn 0.000000 0.000000 1.000000
vn 0.000000 0.000000 1.000000
vn 0.000000 0.000000 1.000000
vn 0.000000 0.000000 1.000000
vn 0.000000 0.000000 1.000000
vn 0.000000 0.000000 1.000000
vn 0.000000 0.000000 1.000000
vn 0.000000 0.000000 -1.000000
vn 0.000000 0.000000 -1.000000
vn 0.000000 0.000000 -1.000000
vn 0.000000 0.000000 -1.000000
vn 0.000000 0.000000 -1.000000
vn 0.000000 0.000000 -1.000000
vn 0.000000 0.000000 -1.000000
vn 0.000000 0.000000 -1.000000
vn 0.000000 0.000000 -1.000000
vn 0.000000 0.000000 -1.000000
vn 0.000000 0.000000 -1.000000
vn 0.000000 0.000000 -1.000000
vn 0.000000 0.000000 -1.000000
vn 0.000000 0.000000 -1.000000
vn 0.000000 0.000000 -1.000000
vn 0.000000 0.000000 -1.000000
vn 0.000000 0.000000 -1.000000
vn 0.000000 0.000000 -1.000000
vn 0.000000 0.000000 -1.000000
vn 0.000000 0.000000 -1.000000
vn 0.000000 0.000000 -1.000000
vn 0.000000 0.000000 -1.000000
vn 0.000000 0.000000 -1.000000
vn 0.000000 0.000000 -1.000000
vn 0.994522 0.104528 0.000000
vn 0.994522 0.104528 0.000000
vn 0.994522 0.104528 0.000000
vn 0.994522 0.104528 0.000000
vn 0.994522 0.104528 0.000000
vn 0.994522 0.104528 0.000000
vn 0.951056 0.309018 0.000000
vn 0.951056 0.309018 0.000000
vn 0.951056 0.309018 0.000000
vn 0.951056 0.309018 0.000000
vn 0.951056 0.309018 0.000000
vn 0.951056 0.309018 0.000000
vn 0.866026 0.499999 0.000000
vn 0.866026 0.499999 0.000000
vn 0.866026 0.499999 0.000000
vn 0.866026 0.499999 0.000000
vn 0.866026 0.499999 0.000000
vn 0.866026 0.499999 0.000000
vn 0.743144 0.669131 0.000000
vn 0.743144 0.669131 0.000000
vn 0.743144 0.669131 0.000000
vn 0.743144 0.669131 0.000000
vn 0.743144 0.669131 0.000000
vn 0.743144 0.669131 0.000000
vn 0.587785 0.809017 0.000000
vn 0.587785 0.809017 0.000000
vn 0.587785 0.809017 0.000000
vn 0.587785 0.809017 0.000000
vn 0.587785 0.809017 0.000000
vn 0.587785 0.809017 0.000000
vn 0.406737 0.913545 0.000000
vn 0.406737 0.913545 0.000000
vn 0.406737 0.913545 0.000000
vn 0.406737 0.913545 0.000000
vn 0.406737 0.913545 0.000000
vn 0.406737 0.913545 0.000000
vn 0.207911 0.978148 0.000000
vn 0.207911 0.978148 0.000000
vn 0.207911 0.978148 0.000000
vn 0.207911 0.978148 0.000000
vn 0.207911 0.978148 0.000000
vn 0.207911 0.978148 0.000000
vn 0.000000 1.000000 0.000000
vn 0.000000 1.000000 0.000000
vn 0.000000 1.000000 0.000000
vn 0.000000 1.000000 0.000000
vn 0.000000 1.000000 0.000000
vn 0.000000 1.000000 0.000000
vn -0.207911 0.978148 0.000000
vn -0.207911 0.978148 0.000000
vn -0.207911 0.978148 0.000000
vn -0.207911 0.978148 0.000000
vn -0.207911 0.978148 0.000000
vn -0.207911 0.978148 0.000000
vn -0.406738 0.913545 0.000000
vn -0.406738 0.913545 0.000000
vn -0.406738 0.913545 0.000000
vn -0.406738 0.913545 0.000000
vn -0.406738 0.913545 0.000000
vn -0.406738 0.913545 0.000000
vn -0.587785 0.809017 0.000000
vn -0.587785 0.809017 0.000000
vn -0.587785 0.809017 0.000000
vn -0.587785 0.809017 0.000000
vn -0.587785 0.809017 0.000000
vn -0.587785 0.809017 0.000000
vn -0.743144 0.669131 0.000000
vn -0.743144 0.669131 0.000000
vn -0.743144 0.669131 0.000000
vn -0.743144 0.669131 0.000000
vn -0.743144 0.669131 0.000000
vn -0.743144 0.669131 0.000000
vn -0.866026 0.499999 0.000000
vn -0.866026 0.499999 0.000000
vn -0.866026 0.499999 0.000000
vn -0.866026 0.499999 0.000000
vn -0.866026 0.499999 0.000000
vn -0.866026 0.499999 0.000000
vn -0.951056 0.309018 0.000000
vn -0.951056 0.309018 0.000000
vn -0.951056 0.309018 0.000000
vn -0.951056 0.309018 0.000000
vn -0.951056 0.309018 0.000000
vn -0.951056 0.309018 0.000000
vn -0.994522 0.104528 0.000000
vn -0.994522 0.104528 0.000000
vn -0.994522 0.104528 0.000000
vn -0.994522 0.104528 0.000000
vn -0.994522 0.104528 0.000000
vn -0.994522 0.104528 0.000000
vn -0.994522 -0.104528 0.000000
vn -0.994522 -0.104528 0.000000
vn -0.994522 -0.104528 0.000000
vn -0.994522 -0.104528 0.000000
vn -0.994522 -0.104528 0.000000
vn -0.994522 -0.104528 0.000000
vn -0.951056 -0.309018 0.000000
vn -0.951056 -0.309018 0.000000
vn -0.951056 -0.309018 0.000000
vn -0.951056 -0.309018 0.000000
vn -0.951056 -0.309018 0.000000
vn -0.951056 -0.309018 0.000000
vn -0.866025 -0.500001 0.000000
vn -0.866025 -0.500001 0.000000
vn -0.866025 -0.500001 0.000000
vn -0.866025 -0.500001 0.000000
vn -0.866025 -0.500001 0.000000
vn -0.866025 -0.500001 0.000000
vn -0.743145 -0.669130 0.000000
vn -0.743145 -0.669130 0.000000
vn -0.743145 -0.669130 0.000000
vn -0.743145 -0.669130 0.000000
vn -0.743145 -0.669130 0.000000
vn -0.743145 -0.669130 0.000000
vn -0.587785 -0.809017 0.000000
vn -0.587785 -0.809017 0.000000
vn -0.587785 -0.809017 0.000000
vn -0.587785 -0.809017 0.000000
vn -0.587785 -0.809017 0.000000
vn -0.587785 -0.809017 0.000000
vn -0.406736 -0.913546 0.000000
vn -0.406736 -0.913546 0.000000
vn -0.406736 -0.913546 0.000000
vn -0.406736 -0.913546 0.000000
vn -0.406736 -0.913546 0.000000
vn -0.406736 -0.913546 0.000000
vn -0.207913 -0.978147 0.000000
vn -0.207913 -0.978147 0.000000
vn -0.207913 -0.978147 0.000000
vn -0.207913 -0.978147 0.000000
vn -0.207913 -0.978147 0.000000
vn -0.207913 -0.978147 0.000000
vn 0.000000 -1.000000 0.000000
vn 0.000000 -1.000000 0.000000
vn 0.000000 -1.000000 0.000000
vn 0.000000 -1.000000 0.000000
vn 0.000000 -1.000000 0.000000
vn 0.000000 -1.000000 0.000000
vn 0.207913 -0.978147 0.000000
vn 0.207913 -0.978147 0.000000
vn 0.207913 -0.978147 0.000000
vn 0.207913 -0.978147 0.000000
vn 0.207913 -0.978147 0.000000
vn 0.207913 -0.978147 0.000000
vn 0.406736 -0.913546 0.000000
vn 0.406736 -0.913546 0.000000
vn 0.406736 -0.913546 0.000000
vn 0.406736 -0.913546 0.000000
vn 0.406736 -0.913546 0.000000
vn 0.406736 -0.913546 0.000000
vn 0.587786 -0.809017 0.000000
vn 0.587786 -0.809017 0.000000
vn 0.587786 -0.809017 0.000000
vn 0.587786 -0.809017 0.000000
vn 0.587786 -0.809017 0.000000
vn 0.587786 -0.809017 0.000000
vn 0.743145 -0.669130 0.000000
vn 0.743145 -0.669130 0.000000
vn 0.743145 -0.669130 0.000000
vn 0.743145 -0.669130 0.000000
vn 0.743145 -0.669130 0.000000
vn 0.743145 -0.669130 0.000000
vn 0.866026 -0.499999 0.000000
vn 0.866026 -0.499999 0.000000
vn 0.866026 -0.499999 0.000000
vn 0.866026 -0.499999 0.000000
vn 0.866026 -0.499999 0.000000
vn 0.866026 -0.499999 0.000000
vn 0.951056 -0.309018 0.000000
vn 0.951056 -0.309018 0.000000
vn 0.951056 -0.309018 0.000000
vn 0.951056 -0.309018 0.000000
vn 0.951056 -0.309018 0.000000
vn 0.951056 -0.309018 0.000000
vn -0.994522 0.104528 0.000000
vn -0.994522 0.104528 0.000000
vn -0.994522 0.104528 0.000000
vn -0.994522 0.104528 0.000000
vn -0.994522 0.104528 0.000000
vn -0.994522 0.104528 0.000000
s off
g imm5:IVCON
usemtl imm5:initialShadingGroup
f 1//1 3//2 19//3
f 3//4 5//5 19//6
f 5//7 7//8 19//9
f 7//10 9//11 19//12
f 9//13 11//14 19//15
f 11//16 13//17 19//18
f 13//19 15//20 19//21
f 15//22 17//23 19//24
f 60//25 58//26 42//27
f 58//28 56//29 42//30
f 56//31 54//32 42//33
f 54//34 52//35 42//36
f 52//37 50//38 42//39
f 50//40 48//41 42//42
f 48//43 46//44 42//45
f 46//46 44//47 42//48
f 1//49 2//50 3//51
f 3//52 2//53 4//54
f 3//55 4//56 5//57
f 5//58 4//59 6//60
f 5//61 6//62 7//63
f 7//64 6//65 8//66
f 7//67 8//68 9//69
f 9//70 8//71 10//72
f 9//73 10//74 11//75
f 11//76 10//77 12//78
f 11//79 12//80 13//81
f 13//82 12//83 14//84
f 13//85 14//86 15//87
f 15//88 14//89 16//90
f 15//91 16//92 17//93
f 17//94 16//95 18//96
f 17//97 18//98 19//99
f 19//100 18//101 20//102
f 19//103 20//104 21//105
f 21//106 20//107 22//108
f 21//109 22//110 23//111
f 23//112 22//113 24//114
f 23//115 24//116 25//117
f 25//118 24//119 26//120
f 25//121 26//122 27//123
f 27//124 26//125 28//126
f 27//127 28//128 29//129
f 29//130 28//131 30//132
f 29//133 30//134 31//135
f 31//136 30//137 32//138
f 31//139 32//140 33//141
f 33//142 32//143 34//144
f 33//145 34//146 35//147
f 35//148 34//149 36//150
f 35//151 36//152 37//153
f 37//154 36//155 38//156
f 37//157 38//158 39//159
f 39//160 38//161 40//162
f 39//163 40//164 41//165
f 41//166 40//167 42//168
f 41//169 42//170 43//171
f 43//172 42//173 44//174
f 43//175 44//176 45//177
f 45//178 44//179 46//180
f 45//181 46//182 47//183
f 47//184 46//185 48//186
f 47//187 48//188 49//189
f 49//190 48//191 50//192
f 49//193 50//194 51//195
f 51//196 50//197 52//198
f 51//199 52//200 53//201
f 53//202 52//203 54//204
f 53//205 54//206 55//207
f 55//208 54//209 56//210
f 55//211 56//212 57//213
f 57//214 56//215 58//216
f 57//217 58//218 59//219
f 59//220 58//221 60//222
f 1//223 2//224 59//225
f 59//226 2//227 60//228
