/* XPM */
static const char* first[] = {
/* columns rows colors chars-per-pixel */
"22 22 24 1",
"  c black",
". c #0b0b0b",
"X c #141414",
"o c #1e1e1e",
"O c #2e2e2e",
"+ c #3c3c3c",
"@ c #444444",
"# c gray30",
"$ c #555555",
"% c #585858",
"& c #676767",
"* c gray49",
"= c #9b9b9b",
"- c #a2a2a2",
"; c DarkGray",
": c gray71",
"> c gray76",
", c #cecece",
"< c #d5d5d5",
"1 c #dadada",
"2 c gray90",
"3 c #ececec",
"4 c gray96",
"5 c none",
/* pixels */
"5555555555555555555555",
"5555555555555555555555",
"5555555555555555555555",
"55+oo55555555555555555",
"55ooo55555555551=&5555",
"55ooo555555551$%O%5555",
"55ooo5555551$%O  %5555",
"55ooo55551$%O    %5555",
"55ooo551$%O      %5555",
"55ooo1$$O        %5555",
"55ooX*O          %5555",
"55ooo=$O         %5555",
"55ooo5<$$o       %5555",
"55ooo555,%#X     %5555",
"55ooO45554>%@.   %5555",
"55oo.5555554:$@. %5555",
"55ooo555555553;%+$5555",
"55ooo55555555552-%5555",
"55ooo55555555555545555",
"5555555555555555555555",
"5555555555555555555555",
"5555555555555555555555"
};
