/* XPM */
static const char * icon_last[] = {
/* columns rows colors chars-per-pixel */
"22 22 24 1",
"  c black",
". c #0b0b0b",
"X c #141414",
"o c #1e1e1e",
"O c #2e2e2e",
"+ c #3c3c3c",
"@ c #444444",
"# c gray30",
"$ c #555555",
"% c #585858",
"& c #676767",
"* c gray49",
"= c #9b9b9b",
"- c #a2a2a2",
"; c DarkGray",
": c gray71",
"> c gray76",
", c #cecece",
"< c #d5d5d5",
"1 c #dadada",
"2 c gray90",
"3 c #ececec",
"4 c gray96",
"5 c none",
/* pixels */
"5555555555555555555555",
"5555555555555555555555",
"5555555555555555555555",
"55555555555555555oo+55",
"5555&=15555555555ooo55",
"5555%O%$155555555ooo55",
"5555%  O%$1555555ooo55",
"5555%    O%$15555ooo55",
"5555%      O%$155ooo55",
"5555%        O%$1ooo55",
"5555%          O*Xoo55",
"5555%         O$=ooo55",
"5555%       o$$<5ooo55",
"5555%     X#%,555ooo55",
"5555%   .@%>45555ooo55",
"5555% .@%:4555555.oo55",
"5555%+$;355555555ooo55",
"5555%-25555555555ooo55",
"55554555555555555ooo55",
"5555555555555555555555",
"5555555555555555555555",
"5555555555555555555555"
};
