/* XPM */
static const char * icon_next[] = {
/* columns rows colors chars-per-pixel */
"22 22 26 1",
"  c #000000",
". c #0a0a0a",
"X c gray12",
"o c #2e2e2e",
"O c #3a3a3a",
"+ c #444444",
"@ c #4a4a4a",
"# c #555555",
"$ c #585858",
"% c #676767",
"& c gray42",
"* c gray49",
"= c #868686",
"- c #888888",
"; c #9a9a9a",
": c #a2a2a2",
"> c DarkGray",
", c gray70",
"< c gray76",
"1 c gray80",
"2 c #d5d5d5",
"3 c #dadada",
"4 c #e3e3e3",
"5 c #ececec",
"6 c gray96",
"7 c none",
/* pixels */
"7777777777777777777777",
"7777777777777777777777",
"7777777777777777777777",
"7777777777777777777777",
"77777%;377777777777777",
"77777$o$#3777777777777",
"77777$  o$#37777777777",
"77777$ .  o$#377777777",
"77777$ 777OO=##3777777",
"77777$ 77777;Oo##37777",
"77777$ 7777777  o*,777",
"77777$ 777777O o#;4777",
"77777$ 7777= X##277777",
"77777$ 761@&@$17777777",
"77777$ . .+$,777777777",
"77777$  +$,77777777777",
"77777$O#>5777777777777",
"77777$:477777777777777",
"7777777777777777777777",
"7777777777777777777777",
"7777777777777777777777",
"7777777777777777777777"
};
