/* XPM */
static const char* pauseIcon[] = {
/* columns rows colors chars-per-pixel */
"22 22 2 1",
"  c black",
". c none",
/* pixels */
"......................",
"......................",
"......................",
"......................",
"......................",
"......................",
"......   ....   ......",
"......   ....   ......",
"......   ....   ......",
"......   ....   ......",
"......   ....   ......",
"......   ....   ......",
"......   ....   ......",
"......   ....   ......",
"......   ....   ......",
"......   ....   ......",
"......   ....   ......",
"......................",
"......................",
"......................",
"......................",
"......................"
};
