/* XPM */
static const char * icon_pause[] = {
/* columns rows colors chars-per-pixel */
"22 22 2 1",
"  c black",
". c none",
/* pixels */
"......................",
"......................",
"......................",
"......................",
"......................",
"......................",
"......   ....   ......",
"......   ....   ......",
"......   ....   ......",
"......   ....   ......",
"......   ....   ......",
"......   ....   ......",
"......   ....   ......",
"......   ....   ......",
"......   ....   ......",
"......   ....   ......",
"......   ....   ......",
"......................",
"......................",
"......................",
"......................",
"......................"
};
