/* XPM */
static const char* playback[] = {
/* columns rows colors chars-per-pixel */
"22 22 24 1",
"  c black",
". c #090909",
"X c #131313",
"o c gray12",
"O c #2e2e2e",
"+ c #393939",
"@ c #444444",
"# c gray30",
"$ c #555555",
"% c #585858",
"& c #676767",
"* c gray49",
"= c #9b9b9b",
"- c #a2a2a2",
"; c DarkGray",
": c gray70",
"> c gray76",
", c #cecece",
"< c #d5d5d5",
"1 c #dadada",
"2 c #e3e3e3",
"3 c #ececec",
"4 c gray96",
"5 c none",
/* pixels */
"5555555555555555555555",
"5555555555555555555555",
"5555555555555555555555",
"5555555555555555555555",
"555555555555551=&55555",
"5555555555551$%O%55555",
"55555555551$%O  %55555",
"555555551$%O    %55555",
"5555551$%O      %55555",
"55551$$O        %55555",
"555:*O          %55555",
"5552=$O         %55555",
"55555<$$O       %55555",
"5555555,$#X     %55555",
"555555554>%@.   %55555",
"55555555554:%@. %55555",
"5555555555553;%+%55555",
"555555555555552-%55555",
"5555555555555555455555",
"5555555555555555555555",
"5555555555555555555555",
"5555555555555555555555"
};
