/* XPM */
static char *disk_yellow[] = {
/* width height ncolors chars_per_pixel */
(char*)"32 32 6 1",
/* colors */
(char*)"  c black",
(char*)". c grey",
(char*)"X c white",
(char*)"o c gold",
(char*)"O c LemonChiffon",
(char*)"+ c orange",
/* pixels */
(char*)"                                ",
(char*)"                                ",
(char*)"   oo+oooooooooooooooooooooOooo ",
(char*)"  ooo+oooooooooooooooooooooOooo ",
(char*)"  ooo+oooooooooooooooooooooOo o ",
(char*)"  ooo+oooooooooooooooooooooOo o ",
(char*)"  ooo+oooooooooooooooooooooOooo ",
(char*)"  ooo+oooooooooooooooooooooOooo ",
(char*)"  ooo+oooooooooooooooooooooOooo ",
(char*)"  ooo+oooooooooooooooooooooOooo ",
(char*)"  ooo+oooooooooooooooooooooOooo ",
(char*)"  ooo+oooooooooooooooooooooOooo ",
(char*)"  ooo+oooooooooooooooooooooOooo ",
(char*)"  ooo+oooooooooooooooooooooOooo ",
(char*)"  ooo+oooooooooooooooooooooOooo ",
(char*)"  ooo+oooooooooooooooooooooOooo ",
(char*)"  ooo+oooooooooooooooooooooOooo ",
(char*)"  oooOOOOOOOOOOOOOOOOOOOOOOOooo ",
(char*)"  ooooooooooooooooooooooooooooo ",
(char*)"  ooooooooooooooooooooooooooooo ",
(char*)"  ooooooooooooooooooooooooooooo ",
(char*)"  oooooooo+++++++++++++++++oooo ",
(char*)"  oooooooo+............ ooOOooo ",
(char*)"  oooooooo+............ oooOooo ",
(char*)"  oooooooo+..    X..... oooOooo ",
(char*)"  oooooooo+.. oooX..... oooOooo ",
(char*)"  oooooooo+.. oooX..... oooOooo ",
(char*)"  oooooooo+.. oooX..... oooOooo ",
(char*)"  oooooooo+.. oooX..... oooOooo ",
(char*)"  oooooooo+..XXXXX..... oooOooo ",
(char*)"   ooooooo+............ oooOoo  ",
(char*)"                                "
};
