/* XPM */
static const char * icon_board[] = {
/* columns rows colors chars-per-pixel */
(char*)"32 32 9 1",
(char*)"  c black",
(char*)". c #663300",
(char*)"X c #444444",
(char*)"o c #777777",
(char*)"O c #996633",
(char*)"+ c #ff6600",
(char*)"@ c #bbbbbb",
(char*)"# c white",
(char*)"$ c None",
/* pixels */
(char*)"$$$$    $$$$$$$$$$$$$$$$$$$$$$$$",
(char*)"$$$        $$$$$$$$$$$$$$$$$$$$$",
(char*)"$$   @o      $$$$$$$$$$$$$$$$$$$",
(char*)"$$  @#Xo ##   $$$$$$$$$$$$$$$$$$",
(char*)"$   oX@o X##                   $",
(char*)"     oo  XX@.                   ",
(char*)"  #    .X ...  ####@@@@@@@@@@O  ",
(char*)"  #  @#   .XX  OOOOOOOOOOOOOO.  ",
(char*)"  @  oXX.XooX  ............@O.  ",
(char*)"  @O  o@Xo@o   ++O+++OO++O+@O.  ",
(char*)"  @O   @XXo   oOO+O++++OO+.@O.  ",
(char*)"  @O.          +++o+O+OO+++@O.  ",
(char*)"  @O.OO    O+  ..o++O+++O+O@O.  ",
(char*)"  @O.+++oOOO+o  ..++OO+++++@O.  ",
(char*)"  @O.O+O+o++OO.....OO+o+O+O@O.  ",
(char*)"  @O.O+oO+o++O....O+OoOO+OO@O.  ",
(char*)"  @O.+OOO++OoO+..++++++O++O@O.  ",
(char*)"  @O.OO++O+O+o+OO+O++O+oO++@O.  ",
(char*)"  @O.+OoO+O+OO++++OO+++O+++@O.  ",
(char*)"  @O.+++oO+++O+++O+ooOO+o+O@O.  ",
(char*)"  @O.oOO+.o+oO+OOo+++++O+++@O.  ",
(char*)"  @O.o+o+O+OOO+oooO+++OO+OO@O.  ",
(char*)"  @O.+OO++OO++++++O+++OoOO+@O.  ",
(char*)"  @O.+++o+++O+O++o+++O++++O@O.  ",
(char*)"  @O.OoOoO+O+++OO+OO+.+O+O+@O.  ",
(char*)"  @O.+OOOOO+++O++O+O+++O+++@O.  ",
(char*)"  @O.O+O+O+O+O+OO++OOO+OO+.@O.  ",
(char*)"  @OO@@@@@@@@@@@@@@@@@@@@@@#O.  ",
(char*)"  @OOOOOOOOOOOOOOOOOOOOOOOOOO.  ",
(char*)"  O...........................  ",
(char*)"                                ",
(char*)"$                              $"
};
