/* XPM */
static const char* cameraIcon[] = {
/* columns rows colors chars-per-pixel */
(char*)"32 32 31 1",
(char*)"  c black",
(char*)". c #000011",
(char*)"X c #001100",
(char*)"o c #111111",
(char*)"O c #003300",
(char*)"+ c #222222",
(char*)"@ c gray20",
(char*)"# c #003366",
(char*)"$ c #336633",
(char*)"% c #336666",
(char*)"& c #444444",
(char*)"* c #555555",
(char*)"= c #777777",
(char*)"- c #663399",
(char*)"; c #6633ff",
(char*)": c #339999",
(char*)"> c #9900ff",
(char*)", c #9966cc",
(char*)"< c #888888",
(char*)"1 c gray60",
(char*)"2 c #aaaaaa",
(char*)"3 c #bbbbbb",
(char*)"4 c #9999ff",
(char*)"5 c #99cccc",
(char*)"6 c gray80",
(char*)"7 c #dddddd",
(char*)"8 c #ccccff",
(char*)"9 c #ccffff",
(char*)"0 c #eeeeee",
(char*)"q c white",
(char*)"w c None",
/* pixels */
(char*)"wwwwwwwwwwwwwwwwwwwwwwwwwwwwwwww",
(char*)"wwwwwwwwwwwwwwwwwwwwwwwwwwwwwwww",
(char*)"wwwwwwwwwwwwwwwwwwwwwwwwwwwwwwww",
(char*)"wwwwwwwwwwwwwwwwwwwwwwwwwwwwwwww",
(char*)"wwwwwwwwwwwwwwwwwwwwwwwwwwwwwwww",
(char*)"wwwwwwwwwwwwwwwwwwwwwwwwwwwwwwww",
(char*)"wwwwwwwwwwwwwwwwwwwwwwwwwwwwwwww",
(char*)"wwwwwwwwwwwwwwwwwwwwwwwwwwwwwwww",
(char*)"wwwwwwwwwww          wwwwwwwwwww",
(char*)"wwwwwwwwww            wwwwwwwwww",
(char*)"wwwwwwwww   q77700q3   w    wwww",
(char*)"www   w    q7qq000062  w     www",
(char*)"ww         q=<<1<<<12    &&+  ww",
(char*)"ww  *+ +*+ 7<1122133=          w",
(char*)"w  030000 712      2=< 0000q7  w",
(char*)"w  <=<266 7   ...o   < 6620q2  w",
(char*)"  02=<223   ..ooo.oo   2620q2  w",
(char*)"  =&+oooo  .o+    .oo  oooo o  w",
(char*)"   1*****  .+ ,>-  .o  ****&+  w",
(char*)"w  @o@ooo .o ,84;   oo oo+@o+  w",
(char*)"w  @o@ooo .o >4;  #$ + o++@o+  w",
(char*)"w  @o@oo+ o. -;  :%$ @ o++@o+  w",
(char*)"w  @o@oo+ oo    :95O & o++@o+  w",
(char*)"w  @o@oo+  o.  #%5$ =+ o++@o+  w",
(char*)"w  @o@oo++ oo. $$O 2< Xoo+@o+  w",
(char*)"w  oooooooo +@oo  <2 .XXooo o  w",
(char*)"w  2=<22363<  @@&=& <363220q2  w",
(char*)"w                              w",
(char*)"ww                            ww",
(char*)"wwwwwwwwwwwwwwwwwwwwwwwwwwwwwwww",
(char*)"wwwwwwwwwwwwwwwwwwwwwwwwwwwwwwww",
(char*)"wwwwwwwwwwwwwwwwwwwwwwwwwwwwwwww"
};
