/* XPM */
static char* icon_ccs_one_color[] = {
(char*)"50 49 329 2",
(char*)"  	c None",
(char*)". 	c #000000",
(char*)"+ 	c #2F2F2B",
(char*)"@ 	c #9C9B91",
(char*)"# 	c #65645E",
(char*)"$ 	c #84837B",
(char*)"% 	c #AAA89E",
(char*)"& 	c #AFAEA3",
(char*)"* 	c #11100F",
(char*)"= 	c #87867E",
(char*)"- 	c #A9A79D",
(char*)"; 	c #AFADA3",
(char*)"> 	c #151513",
(char*)", 	c #11110F",
(char*)"' 	c #000001",
(char*)") 	c #87857E",
(char*)"! 	c #2D2C29",
(char*)"~ 	c #A5A399",
(char*)"{ 	c #050404",
(char*)"] 	c #87857D",
(char*)"^ 	c #32322F",
(char*)"/ 	c #9E9C94",
(char*)"( 	c #AEACA2",
(char*)"_ 	c #040404",
(char*)": 	c #2F2E2C",
(char*)"< 	c #A4A299",
(char*)"[ 	c #A8A69C",
(char*)"} 	c #ADABA1",
(char*)"| 	c #333330",
(char*)"1 	c #9F9D94",
(char*)"2 	c #31302E",
(char*)"3 	c #A5A39A",
(char*)"4 	c #A7A59B",
(char*)"5 	c #0A0A0A",
(char*)"6 	c #060605",
(char*)"7 	c #010101",
(char*)"8 	c #343431",
(char*)"9 	c #121210",
(char*)"0 	c #73716B",
(char*)"a 	c #131311",
(char*)"b 	c #817F77",
(char*)"c 	c #87867D",
(char*)"d 	c #67665F",
(char*)"e 	c #373733",
(char*)"f 	c #A6A49B",
(char*)"g 	c #050504",
(char*)"h 	c #86857D",
(char*)"i 	c #111010",
(char*)"j 	c #7C7B73",
(char*)"k 	c #A2A096",
(char*)"l 	c #292826",
(char*)"m 	c #10100F",
(char*)"n 	c #929087",
(char*)"o 	c #ABA99F",
(char*)"p 	c #9A988E",
(char*)"q 	c #44433F",
(char*)"r 	c #050505",
(char*)"s 	c #383834",
(char*)"t 	c #A09E95",
(char*)"u 	c #ACAAA0",
(char*)"v 	c #1D1D1B",
(char*)"w 	c #56554F",
(char*)"x 	c #8F8E85",
(char*)"y 	c #89877F",
(char*)"z 	c #353532",
(char*)"A 	c #141312",
(char*)"B 	c #8D8B83",
(char*)"C 	c #A9A79C",
(char*)"D 	c #88877F",
(char*)"E 	c #20201E",
(char*)"F 	c #A7A59C",
(char*)"G 	c #A8A69B",
(char*)"H 	c #6F6E68",
(char*)"I 	c #191917",
(char*)"J 	c #080807",
(char*)"K 	c #A4A298",
(char*)"L 	c #A2A097",
(char*)"M 	c #2D2C2B",
(char*)"N 	c #0E0E0C",
(char*)"O 	c #8E8D84",
(char*)"P 	c #949289",
(char*)"Q 	c #070707",
(char*)"R 	c #180900",
(char*)"S 	c #6D2C00",
(char*)"T 	c #682A00",
(char*)"U 	c #6C2C00",
(char*)"V 	c #110600",
(char*)"W 	c #393935",
(char*)"X 	c #A09F95",
(char*)"Y 	c #A2A09F",
(char*)"Z 	c #6D6CBE",
(char*)"` 	c #6463C3",
(char*)" .	c #9493A7",
(char*)"..	c #B1AF96",
(char*)"+.	c #5D5C57",
(char*)"@.	c #6C6B64",
(char*)"#.	c #A19F95",
(char*)"$.	c #A19F96",
(char*)"%.	c #373633",
(char*)"&.	c #161615",
(char*)"*.	c #64625D",
(char*)"=.	c #3C1700",
(char*)"-.	c #FF6E00",
(char*)";.	c #FF6900",
(char*)">.	c #FF6D00",
(char*)",.	c #2B1100",
(char*)"'.	c #252422",
(char*)").	c #ACAA99",
(char*)"!.	c #1D1EED",
(char*)"~.	c #0000FF",
(char*)"{.	c #2525E8",
(char*)"].	c #9C9A90",
(char*)"^.	c #090909",
(char*)"/.	c #696861",
(char*)"(.	c #070807",
(char*)"_.	c #3A1700",
(char*)":.	c #FF6B00",
(char*)"<.	c #FF6600",
(char*)"[.	c #FF6A00",
(char*)"}.	c #2A1100",
(char*)"|.	c #020202",
(char*)"1.	c #74736B",
(char*)"2.	c #ADAB98",
(char*)"3.	c #4E4DD1",
(char*)"4.	c #8381B1",
(char*)"5.	c #908E85",
(char*)"6.	c #060606",
(char*)"7.	c #343430",
(char*)"8.	c #A6A49A",
(char*)"9.	c #2A2A27",
(char*)"0.	c #0A0A09",
(char*)"a.	c #9B9990",
(char*)"b.	c #7170BD",
(char*)"c.	c #0101FE",
(char*)"d.	c #7978B7",
(char*)"e.	c #AAA89A",
(char*)"f.	c #97958D",
(char*)"g.	c #121211",
(char*)"h.	c #43433E",
(char*)"i.	c #391600",
(char*)"j.	c #FE6500",
(char*)"k.	c #FA6400",
(char*)"l.	c #FF6800",
(char*)"m.	c #291000",
(char*)"n.	c #131312",
(char*)"o.	c #908FA9",
(char*)"p.	c #0707FA",
(char*)"q.	c #4A49D3",
(char*)"r.	c #929188",
(char*)"s.	c #191918",
(char*)"t.	c #0C0C0B",
(char*)"u.	c #A3A197",
(char*)"v.	c #53524D",
(char*)"w.	c #020000",
(char*)"x.	c #1F0C00",
(char*)"y.	c #E75C00",
(char*)"z.	c #0C0500",
(char*)"A.	c #010000",
(char*)"B.	c #9E9D93",
(char*)"C.	c #9F9DA1",
(char*)"D.	c #2222EA",
(char*)"E.	c #AFAC97",
(char*)"F.	c #96958C",
(char*)"G.	c #111110",
(char*)"H.	c #0B0A0A",
(char*)"I.	c #9A988F",
(char*)"J.	c #5F5D58",
(char*)"K.	c #F05F00",
(char*)"L.	c #100700",
(char*)"M.	c #030303",
(char*)"N.	c #7C7B74",
(char*)"O.	c #7876B8",
(char*)"P.	c #8F8EAA",
(char*)"Q.	c #2D2DE4",
(char*)"R.	c #1818F0",
(char*)"S.	c #A2A19E",
(char*)"T.	c #AAA89D",
(char*)"U.	c #1A1A18",
(char*)"V.	c #99978E",
(char*)"W.	c #63625C",
(char*)"X.	c #AD4500",
(char*)"Y.	c #4B1E00",
(char*)"Z.	c #363532",
(char*)"`.	c #A19F9F",
(char*)" +	c #1919EF",
(char*)".+	c #8B88AD",
(char*)"++	c #98968C",
(char*)"@+	c #161613",
(char*)"#+	c #61605A",
(char*)"$+	c #642800",
(char*)"%+	c #863600",
(char*)"&+	c #4A4945",
(char*)"*+	c #ABA99A",
(char*)"=+	c #4443D6",
(char*)"-+	c #3131E1",
(char*)";+	c #B4B294",
(char*)">+	c #171715",
(char*)",+	c #ABA89E",
(char*)"'+	c #1B1A19",
(char*)")+	c #1A0A00",
(char*)"!+	c #BD4B00",
(char*)"~+	c #4C4B46",
(char*)"{+	c #7170BB",
(char*)"]+	c #8482B0",
(char*)"^+	c #98958C",
(char*)"/+	c #141413",
(char*)"(+	c #8F8D85",
(char*)"_+	c #0F0F0E",
(char*)":+	c #C54F00",
(char*)"<+	c #070300",
(char*)"[+	c #4A4944",
(char*)"}+	c #ABA999",
(char*)"|+	c #8E8C84",
(char*)"1+	c #181817",
(char*)"2+	c #A54200",
(char*)"3+	c #090300",
(char*)"4+	c #494843",
(char*)"5+	c #97958B",
(char*)"6+	c #161614",
(char*)"7+	c #0E0E0D",
(char*)"8+	c #8D8B82",
(char*)"9+	c #813300",
(char*)"0+	c #FC6500",
(char*)"a+	c #F96300",
(char*)"b+	c #CF5300",
(char*)"c+	c #0B0400",
(char*)"d+	c #494844",
(char*)"e+	c #9F9D93",
(char*)"f+	c #181816",
(char*)"g+	c #070706",
(char*)"h+	c #843400",
(char*)"i+	c #D45500",
(char*)"j+	c #6B6963",
(char*)"k+	c #464641",
(char*)"l+	c #030202",
(char*)"m+	c #883600",
(char*)"n+	c #D95700",
(char*)"o+	c #4A1D00",
(char*)"p+	c #8B3800",
(char*)"q+	c #DF5900",
(char*)"r+	c #933B00",
(char*)"s+	c #762F00",
(char*)"t+	c #060200",
(char*)"u+	c #B54800",
(char*)"v+	c #B84900",
(char*)"w+	c #903A00",
(char*)"x+	c #923A00",
(char*)"y+	c #8F3900",
(char*)"z+	c #0D0500",
(char*)"A+	c #0A0400",
(char*)"B+	c #4C1E00",
(char*)"C+	c #FD6500",
(char*)"D+	c #170900",
(char*)"E+	c #B84A00",
(char*)"F+	c #491D00",
(char*)"G+	c #FC6400",
(char*)"H+	c #321400",
(char*)"I+	c #5A2400",
(char*)"J+	c #582300",
(char*)"K+	c #562300",
(char*)"L+	c #B94A00",
(char*)"M+	c #0E0500",
(char*)"N+	c #DD5800",
(char*)"O+	c #130700",
(char*)"P+	c #913900",
(char*)"Q+	c #FB6400",
(char*)"R+	c #602600",
(char*)"S+	c #D75600",
(char*)"T+	c #773000",
(char*)"U+	c #C74F00",
(char*)"V+	c #CD5200",
(char*)"W+	c #9E3F00",
(char*)"X+	c #110700",
(char*)"Y+	c #903900",
(char*)"Z+	c #2D1200",
(char*)"`+	c #843500",
(char*)" @	c #823400",
(char*)".@	c #8A3700",
(char*)"+@	c #040200",
(char*)"@@	c #C75000",
(char*)"#@	c #913A00",
(char*)"$@	c #050200",
(char*)"%@	c #401900",
(char*)"&@	c #E25A00",
(char*)"*@	c #5C2500",
(char*)"=@	c #371600",
(char*)"-@	c #5B2400",
(char*)";@	c #210D00",
(char*)">@	c #D55500",
(char*)",@	c #5D2500",
(char*)"'@	c #803300",
(char*)")@	c #E85C00",
(char*)"!@	c #893700",
(char*)"~@	c #3B1800",
(char*)"{@	c #BA4A00",
(char*)"]@	c #592400",
(char*)"^@	c #FF6700",
(char*)"/@	c #FF6500",
(char*)"(@	c #BB4B00",
(char*)"_@	c #130800",
(char*)":@	c #8E3900",
(char*)"<@	c #A34100",
(char*)"[@	c #361600",
(char*)"}@	c #3C1800",
(char*)"|@	c #3B1700",
(char*)"1@	c #260F00",
(char*)"2@	c #8C3800",
(char*)"3@	c #EA5D00",
(char*)"4@	c #A44100",
(char*)"5@	c #180A00",
(char*)"6@	c #963C00",
(char*)"7@	c #E05900",
(char*)"8@	c #F66200",
(char*)"9@	c #A84300",
(char*)"0@	c #FF6C00",
(char*)"a@	c #250F00",
(char*)"b@	c #5F2600",
(char*)"c@	c #CC5100",
(char*)"d@	c #F16000",
(char*)"e@	c #BF4C00",
(char*)"f@	c #5C2400",
(char*)"g@	c #FF6F00",
(char*)"h@	c #F76200",
(char*)"i@	c #381600",
(char*)"j@	c #B74900",
(char*)"k@	c #C24D00",
(char*)"l@	c #662900",
(char*)"m@	c #220E00",
(char*)"n@	c #220D00",
(char*)"                                                                                                    ",
(char*)"                                                                                                    ",
(char*)"                                                                                                    ",
(char*)"        . . . . . . . . . . . . . . . . . . . . . . . . . . . . . . . . . . . . . . . . . . . . .   ",
(char*)"        . . . . . . . . . . . . . . . . + @ # . . . . . . . . . . . . . . . . . . . . . . . . . .   ",
(char*)"        . . . . . . . . . . . . . . . . $ % & * . . . . . . . . . . . . . . . . . . . . . . . . .   ",
(char*)"        . . . . . . . . . . . . . . . . = - ; > . . . . . . . . . . . . . . . . . . . . . . . . .   ",
(char*)"        . . . . . . . . . . . . . . , ' ) - ; > . . . . . . . . . . . . . . . . . . . . . . . . .   ",
(char*)"        . . . . . . . . . . . . . ! ~ { ] - ; > . . . . . . . . . . . . . . . . . . . . . . . . .   ",
(char*)"        . . . . . . . . . . . . ^ / ( _ ] - ; > . . . . . . . . . . . . . . . . . . . . . . . . .   ",
(char*)"        . . . . . . . . . . . : < [ } _ ] - ; > . . . . . . . . . . . . . . . . . . . . . . . . .   ",
(char*)"        . . . . . . . . . . | 1 [ [ } _ ] - ; > . . . . . . . . . . . . . . . . . . . . . . . . .   ",
(char*)"        . . . . . . . . . 2 3 [ 4 [ } _ ] - ; > 5 . 6 5 _ 7 . . . . . . . . . . . . . . . . . . .   ",
(char*)"        . . . . . . . . 8 1 [ 4 [ [ } _ ] - ; 9 0 | a b c d e 6 . . . . . . . . . . . . . . . . .   ",
(char*)"        . . . . . . . | f [ 4 [ [ [ } g h - ; i j k l m n - o p q r . . . . . . . . . . . . . . .   ",
(char*)"        . . . . . . s t [ 4 [ [ [ [ u v w ; x 6 y - t z A B % C o D E . . . . . . . . . . . . . .   ",
(char*)"        . . . . . s 4 [ [ [ [ F F G C H r I J : K 4 4 L M N O [ 4 [ P Q . . . . . R S T T U V . .   ",
(char*)"        . . . . W X [ 4 [ [ [ Y Z `  ...b +.@.#.[ [ 4 [ $.%.&.K [ 4 } *.. . . . . =.-.;.;.>.,.. .   ",
(char*)"        . . . '.F [ [ [ [ [ [ G ).!.~.{.Y [ [ 4 [ [ [ 4 [ ].^./.o [ [ k (.. . . . _.:.<.<.[.}.. .   ",
(char*)"        . . |.1.[ 4 [ [ [ [ F 2.3.~.~.4.G [ [ [ [ [ [ 4 % 5.6.7.o [ 4 8.9.. . . . _.:.<.<.[.}.. .   ",
(char*)"        . . 0.a.4 [ [ [ [ F G b.c.~.d.e.F [ [ [ [ [ 4 [ f.9 . g.% [ [ 4 h.. . . . i.;.j.k.l.m.. .   ",
(char*)"        . . n.4 [ [ [ [ [ e.o.p.~.q.G F [ [ [ [ [ 4 % r.s.. . t.u.[ [ 4 v.. . . . w.x.y.. z.A.. .   ",
(char*)"        . . 5 B.[ [ F F G C.p.~.D.E.G [ [ [ [ [ 4 [ F.G.. . . H.I.[ [ [ J.. . . . . . K.L.. . . .   ",
(char*)"        . . M.N.[ 4 F O.P.Q.~.R.S.G F [ [ [ [ 4 T.P U.. . . . 5 V.[ [ [ W.. . . . . . X.Y.. . . .   ",
(char*)"        . . . Z.[ [ G `. +~.~..+G [ [ [ [ [ [ [ ++@+. . . . . 5 V.[ [ [ #+. . . . . . $+%+. . . .   ",
(char*)"        . . . . &+~ [ G *+=+-+;+F [ [ [ [ 4 % O >+. . . . . . 5 V.F ,+x '+. . . . . . )+!+. . . .   ",
(char*)"        . . . . . ~+4 [ G e.{+]+G [ [ [ [ C ^+/+. . . . . . . 5 I.[ (+_+. . . . . . . . :+<+. . .   ",
(char*)"        . . . . . . [+~ [ F }+e.F [ [ 4 - 5.U.. . . . . . . . t.K |+1+. . . . . . . . . 2+3+. . .   ",
(char*)"        . . . . . . . 4+8.[ 4 [ [ [ 4 - 5+6+. . . . . . . . . 7+8+7+. . . . . . . . 9+k.0+a+b+c+.   ",
(char*)"        . . . . . . . . d+e+,+[ [ - o ] f+. . . . . . . . . . g+U.. . . . . . . . . h+<.<.<.i+c+.   ",
(char*)"        . . . . . . . . . I j+I.k 8+k+Q . . . . . . . . . . . . . . . . . . . . . . h+<.<.<.i+c+.   ",
(char*)"        . . . . . . . . . . . ^.i l+. . . . . . . . . . . . . . . . . . . . . . . . m+;.<.l.n+c+.   ",
(char*)"        . . . . . . . . . . . |.|.7 . . . . . . . . . . . . . . . . . . . . . . . . o+p+q+r+s+t+.   ",
(char*)"        . . . . . . . . . . . . . . . . . . . . . . . . . . . . . . . . . . . . . . . . u+w.. . .   ",
(char*)"        . . . . . . . . . . . . . . . . . . . . . . . . . . . . . . . . . . . . . . . . v+c+. . .   ",
(char*)"        . . . . . . . . . . . ,.w+x+x+y+z+. . . . . . . . . . . . . . . . . . . . . . . v+A+. . .   ",
(char*)"        . . . . . . . . . . . B+C+<.<.k.D+. . . . . . . . . . . . . . . . . . . . . . . E+A+. . .   ",
(char*)"        . . . . . . . . . . . F+G+<.<.a+D+. . . . . . . . . . H+I+J+J+K+. . . . . . . . L+A+. . .   ",
(char*)"        . . . . . . . . . . M+N+<.<.<.a+O+. . . . . . . . . . P+;.<.<.Q+. . . . . . . . E+A+. . .   ",
(char*)"        . . . . . . . . . R+S+T+:+U+U+V+W+X+. . . . . . . . . Y+l.<.<.a+. . . . . . . . L+A+. . .   ",
(char*)"        . Z+`+ @ @.@. +@@@#@c+. $@$@$@$@%@&@x.. . . . . . . . Y+l.<.<.a+. . . . . . . . E+A+. . .   ",
(char*)"        . *@:.l.l.-.=@V+-@. . . . . . . . ;@>@,@. . . . . . . '@)@&@&@&@:+!@~@c+. . . . {@c+. . .   ",
(char*)"        . ]@^@<./@^@(@_@. . . . . . . . . . <+:@<@[@}@|@z+. . 3+X+V V V c+1@2@3@4@5@6@7@8@&@9@. .   ",
(char*)"        . ]@l.<.<.0@. . . . . . . . . . . . . a@Q+:.:.;.|@. . . . . . . . . . . b@c@d@<.<.<.e@. .   ",
(char*)"        . f@:.l.l.g@. . . . . . . . . . . . . ,.h@<.<.Q+i@. . . . . . . . . . . . . j@<.<.<.e@. .   ",
(char*)"        . . . . . . . . . . . . . . . . . . . ,.h@<.<.Q+i@. . . . . . . . . . . . . u+^@^@^@k@. .   ",
(char*)"        . . . . . . . . . . . . . . . . . . . Z+^@:.:.;.|@. . . . . . . . . . . . . l@r+x+x+S . .   ",
(char*)"        . . . . . . . . . . . . . . . . . . . $@;@m@m@n@<+. . . . . . . . . . . . . . . . . . . .   ",
(char*)"                                                                                                    "
};


