/* XPM */
static char* colorTable[] = {
/* width height ncolors chars_per_pixel */
(char*)"32 32 11 1",
/* colors */
(char*)"  c black",
(char*)". c cyan",
(char*)"X c green",
(char*)"o c grey",
(char*)"O c magenta",
(char*)"+ c red",
(char*)"@ c NavyBlue",
(char*)"# c white",
(char*)"$ c yellow",
(char*)"% c SlateGrey",
(char*)"& c blue",
/* pixels */
(char*)"###       ######################",
(char*)"#   #$#$#  ###### ##############",
(char*)"# $#$OOO$# ###### ##############",
(char*)"  #$#OOOO$  ####  ##############",
(char*)" #$#$#OOO#$  ###  ##############",
(char*)" $#XX$#$#$#$  @@  ##############",
(char*)" #XXXX$#$#$#$ @@################",
(char*)" $XXXX#$#$#$#    ###############",
(char*)" #$#$#$#$#    $# ###############",
(char*)" $#$++#$#$ @o #$# ##############",
(char*)" #$+++$#$#    $#$ %#############",
(char*)" $#++++$#$#$#$#$# %#############",
(char*)"  $#++$#$#$#$#$#$ %#############",
(char*)"# #$#$#$#&&&#$#$# %#############",
(char*)"##  $#$#&&&&$#$# %##############",
(char*)"### #$#$#&&$#$#$ %##############",
(char*)"###%   #$#$#$       ############",
(char*)"###  %%       %##  #############",
(char*)"#######%%%%%%%### # # ##########",
(char*)"####################  ##########",
(char*)"###################   ##########",
(char*)"######################         #",
(char*)"###################### &&& +++ %",
(char*)"###################### &&& +++ %",
(char*)"######################         %",
(char*)"###################### XXX $$$ %",
(char*)"###################### XXX $$$ %",
(char*)"######################         %",
(char*)"###################### ... OOO %",
(char*)"###################### ... OOO %",
(char*)"######################         %",
(char*)"#######################%%%%%%%%%"
};
