/* XPM */
static const char *icon_crossEdge[] = {
/* width height ncolors chars_per_pixel */
"42 32 3 1",
/* colors */
"` c white",
"a c NavyBlue",
"n c NavyBlue"
/* pixels */
"``````````````````````````````````````````",
"``````````````````````````````````````````",
"``````````````````````````````````````````",
"``````````````````````````````````````````",
"``````````````````````````````````````````",
"``````````````````````````````````````````",
"``````````aaaaaa``````````````````````````",
"``````````aaaaaa``````````````````````````",
"``````````aaaaaa``````````````````````````",
"``````````aaaaaa````````````nnnnnnnnnnn```",
"``````````aaaaaa````````````nnnnnnnnnnn```",
"``````````aaaaaa````````````nnnnnnnnnnn```",
"````aaaaaaaaaaaaaaaaaa``````nnn```````````",
"````aaaaaaaaaaaaaaaaaa``````nnn```````````",
"````aaaaaaaaaaaaaaaaaa``````nnnnnnnnnnn```",
"````aaaaaaaaaaaaaaaaaa``````nnnnnnnnnnn```",
"````aaaaaaaaaaaaaaaaaa``````nnn```````````",
"````aaaaaaaaaaaaaaaaaa``````nnn```````````",
"``````````aaaaaa````````````nnnnnnnnnnn```",
"``````````aaaaaa````````````nnnnnnnnnnn```",
"``````````aaaaaa````````````nnnnnnnnnnn```",
"``````````aaaaaa``````````````````````````",
"``````````aaaaaa``````````````````````````",
"``````````aaaaaa``````````````````````````",
"``````````````````````````````````````````",
"``````````````````````````````````````````",
"``````````````````````````````````````````",
"``````````````````````````````````````````",
"``````````````````````````````````````````",
"``````````````````````````````````````````",
"``````````````````````````````````````````",
"``````````````````````````````````````````"
};
