/* XPM */
static const char * icon_eye[] = {
/* columns rows colors chars-per-pixel */
(char*)"32 32 8 1",
(char*)"  c black",
(char*)". c #663300",
(char*)"X c #777777",
(char*)"o c #996633",
(char*)"O c #ff6600",
(char*)"+ c #bbbbbb",
(char*)"@ c white",
(char*)"# c None",
/* pixels */
(char*)"############# ##################",
(char*)"#############  +################",
(char*)"#############  ++###############",
(char*)"#  ##########  ++###############",
(char*)"#   +########   ++#########  ###",
(char*)"##  ++#######   ++########   +##",
(char*)"##   ++#######  ++#######    +##",
(char*)"##   ++########+++#######   ++##",
(char*)"###  ++##################  ++###",
(char*)"#### ++####       ######  ++####",
(char*)"#####+###           #####++#####",
(char*)"########    +++++    @@#########",
(char*)"#######   +++++++++   +@########",
(char*)"######  +++++++++++++  +@#######",
(char*)"#####   +@++     ++++   @@######",
(char*)"#####  +@@@ XX... ++++  +@@#####",
(char*)"####   ++@ X++X... +++   +@#####",
(char*)"####  +++ X+@+..... +++  +@#####",
(char*)"####  +++ X++X o.o. +++  ++#####",
(char*)"####  +++ .X.  o.o. +++  ++#####",
(char*)"####  +++ ...ooOoO. +++  ++#####",
(char*)"####  +++ .....o++o +++  ++#####",
(char*)"####   +++ ..ooO+o XXX   ++#####",
(char*)"#####  ++++ ....o XXX+  +++#####",
(char*)"#####   ++++     XXXX   +++#####",
(char*)"######  ++++++++XXXX+  +++@#####",
(char*)"#######   ++++++XX+   ++++######",
(char*)"#######+    +++++    ++++@######",
(char*)"########+           ++++@#######",
(char*)"#########++       +++++@########",
(char*)"##########++++++++++++@#########",
(char*)"###########+++++++++@###########"
};
