/* XPM */
static const char * icon_flag[] = {
/* columns rows colors chars-per-pixel */
(char*)"32 32 7 1",
(char*)"  c black",
(char*)". c #663300",
(char*)"X c #444444",
(char*)"o c #777777",
(char*)"O c #bbbbbb",
(char*)"+ c white",
(char*)"@ c None",
/* pixels */
(char*)"@@@@@@@@@@@@@@@@@@@@@@@@@@@@@@@@",
(char*)"@@@@    @@@@@@@@@@@@@@@@@@@@@@@@",
(char*)"@@@@         @@@@@@@@@@@@@@@@@@@",
(char*)"@@@@  ++         @@@@@@@@@@@@@@@",
(char*)"@@@@  O+   O        @@@@@@@@@@@@",
(char*)"@@@@  ..O.X+OOX.          @@  @@",
(char*)"@@@@    +++XX.+++XX.          @@",
(char*)"@@@@   OX. +++XX.OO+.++...    @@",
(char*)"@@@@@  ..OO XX+++.. +++...OO  @@",
(char*)"@@@@@    OO ..OOO  O   OOo .  @@",
(char*)"@@@@   o  .O++   OoO   ooo .  @@",
(char*)"@@@        ooO oo   ooo   Oo  @@",
(char*)"@@@   oo...   ooO   ooo  .Oo  @@",
(char*)"@@     o   ooO   OOo oo...Oo  @@",
(char*)"@@   oo    OOO.  Ooo  .++O..  @@",
(char*)"@@  o   ooo...ooo  O...++O..  @@",
(char*)"@@   oo ooo...oOO  .O+O..O..  @@",
(char*)"@@   .. ..o   ooO...OOO...Oo  @@",
(char*)"@@@   Oo      ...O..OOO...O  @@@",
(char*)"@@@   oo         ooO...OOO.  @@@",
(char*)"@@@        @@   o  o...OOO.  @@@",
(char*)"@@@@    @@@@@@        .ooO.  @@@",
(char*)"@@@@@@@@@@@@@@@           O  @@@",
(char*)"@@@@@@@@@@@@@@@@@@@          @@@",
(char*)"@@@@@@@@@@@@@@@@@@@@@@@      @@@",
(char*)"@@@@@@@@@@@@@@@@@@@@@@@@@@@  @@@",
(char*)"@@@@@@@@@@@@@@@@@@@@@@@@@@@  @@@",
(char*)"@@@@@@@@@@@@@@@@@@@@@@@@@@@  @@@",
(char*)"@@@@@@@@@@@@@@@@@@@@@@@@@@@  @@@",
(char*)"@@@@@@@@@@@@@@@@@@@@@@@@@@@  @@@",
(char*)"@@@@@@@@@@@@@@@@@@@@@@@@@@@  @@@",
(char*)"@@@@@@@@@@@@@@@@@@@@@@@@@@@  @@@"
};
