/* XPM */
static const char * icon_folder[] = {
/* columns rows colors chars-per-pixel */
(char*)"32 32 6 1",
(char*)"  c black",
(char*)". c #663300",
(char*)"X c #996633",
(char*)"o c yellow",
(char*)"O c white",
(char*)"+ c None",
/* pixels */
(char*)"++++++++++++++++++++++++++++++++",
(char*)"+++++++++++++   ++++++++++++++++",
(char*)"+++++++++++      +++    ++++++++",
(char*)"+++++++++    oO          +++++++",
(char*)"+++++++    oO.X.    OoX  +++++++",
(char*)"++++++   oO.XXX.  OoXXX    +++++",
(char*)"++++++  OXXXXXXXOoXXXXXXo  +++++",
(char*)"++++++  o.XXXXXXXXXXXXo..  +++++",
(char*)"+++++   oXXXXXXXXXXXo....  +++++",
(char*)"+++++  oOXXXXXXXXXo..X.X.  +++++",
(char*)"++++  OX.XXXXXXXo...X.X.  ++++++",
(char*)"++++  O.XXXXXXo..X.X.X.X  ++++++",
(char*)"++++  O.XXXXo...X.X.X.X.  ++++++",
(char*)"++++  O.XXXo.X.X.X.X.X.X  ++++++",
(char*)"++++  O.XXXo..X.X.X.X.X.  ++++++",
(char*)"++++  o.XX.o.X.X.X.X.X..  ++++++",
(char*)"++++  o.XX.o..X.X.X.X.X.  ++++++",
(char*)"++++  o....o.X.X.X.X.X.  +++++++",
(char*)"++++  o...XX..X.X.X.X.X  +++++++",
(char*)"++++  o...o..X.X.X.X.X.  +++++++",
(char*)"++++  o...o.X.X.X.X.X.X  +++++++",
(char*)"++++  o...o..X.X.X.X.X.  +++++++",
(char*)"++++  o...o.X.X.X.X.X..  +++++++",
(char*)"++++  o...o..X.X.X.X..  ++++++++",
(char*)"++++  o...X.X.X.X.X.    ++++++++",
(char*)"++++  o..X.X.X.X..    ++++++++++",
(char*)"++++  o..o..X.X.    ++++++++++++",
(char*)"++++  o..o.X..    ++++++++++++++",
(char*)"++++  o. X..    ++++++++++++++++",
(char*)"++++  XXo.    ++++++++++++++++++",
(char*)"++++        ++++++++++++++++++++",
(char*)"+++++     ++++++++++++++++++++++"
};
