/* XPM */
static const char* fontEdit[] = {
(char*)"32 32 6 1",
(char*)" 	c white",
(char*)".	c black",
(char*)"X	c blue",
(char*)"o	c lemon chiffon",
(char*)"O	c grey",
(char*)"+	c dodger blue",
(char*)"                            .X  ",
(char*)"                           .XX  ",
(char*)"                          .XX   ",
(char*)"                         .XX XX ",
(char*)"                        .XX XXX ",
(char*)"                       .XX XXXX ",
(char*)"                       .XXXXXXX ",
(char*)"                      ...XXXXXXX",
(char*)"                     .. ..XXXXXX",
(char*)"                    .. ....XXXXX",
(char*)"                    . ......XXXX",
(char*)"                   .o........XX.",
(char*)"                  .ooo.........O",
(char*)"                 .ooooo......OOO",
(char*)"                .ooooooo....OOO ",
(char*)"               .oooooooo ..OOO  ",
(char*)"++            .oooooooo .OOOO   ",
(char*)"+++          .oooooooo .OOO     ",
(char*)"++++        .oooooooo .OOO      ",
(char*)"+++++      .o        .OOO       ",
(char*)"++ +++    .  ........OOO        ",
(char*)"++  +++  . ..OOOOOOOOOO         ",
(char*)"++   +++...OOOOOOOOOOO          ",
(char*)"++    +++OOOOOO                 ",
(char*)"++   +++++OOO                   ",
(char*)"++ ++++ +++                     ",
(char*)"+++++    ++                     ",
(char*)"+++                             ",
(char*)"++                              ",
(char*)"++                              ",
(char*)"++                              ",
(char*)"                                "};
