/* XPM */
static const char* make[]={
(char*)"32 32 20 1",
(char*)"b c #808080",
(char*)"o c #ffa858",
(char*)"n c #a0a0a0",
(char*)"l c #c3c3c3",
(char*)"d c #fffff0",
(char*)"m c #000000",
(char*)"i c #f0f0f0",
(char*)"e c #9f9f9f",
(char*)"g c #e0e0d0",
(char*)"h c #303030",
(char*)"f c #cfcfcf",
(char*)"p c #ffdca8",
(char*)"q c #ffffc0",
(char*)"  c None",
(char*)"c c #505050",
(char*)"r c #585858",
(char*)"j c #efefef",
(char*)"k c #dcdcdc",
(char*)"a c #ffffff",
(char*)"# c #707070",
(char*)"    ##################          ",
(char*)"    #aaaaaaaaaaaaaaaabc         ",
(char*)"    #adddddddddddddddbec        ",
(char*)"    #adddddddddddddddbfec       ",
(char*)"    #adddddddddddddddbgfec      ",
(char*)"    #adddddddddddddddbagfec     ",
(char*)"    #adddddddddddddddchhhhhh    ",
(char*)"    #adddddaaaaddaddijklee#c    ",
(char*)"    #adddddddaaddadidijkleec    ",
(char*)"    #addddddddadddddiiijklec    ",
(char*)"    #addddddddadaddidiijjklc    ",
(char*)"    #adddaaaaaammaaaaaajjjfc    ",
(char*)"    #adddaammamkkmammaajjgfc    ",
(char*)"    #adddamknmnllnmnkmajggfc    ",
(char*)"    #adddamnkbnoonbknmajjgfc    ",
(char*)"    #adddaamboopopobmaajggfc    ",
(char*)"    #adddmmknopbbopnkmmgjgfc    ",
(char*)"    #addmklnoponnpqonlkmggfc    ",
(char*)"    #addmbnkbpqppaqbknbmggfc    ",
(char*)"    #adddmrrkbpqapbkrrmjggfc    ",
(char*)"    #adddamblkkbbkklbmagggfc    ",
(char*)"    #adddmnabrbkkbrbanmgggfc    ",
(char*)"    #adddmknrmmnnmmrnkmgggfc    ",
(char*)"    #addiammmamkamammmagggfc    ",
(char*)"    #adiddaaaamrbmaaaaagggfc    ",
(char*)"    #adddidiijimmjjjgjggggfc    ",
(char*)"    #aididijiijjjgjgjgggggfc    ",
(char*)"    #adidijijjgjgjgjggggggfc    ",
(char*)"    #aiiijijggjgjgggggggggfc    ",
(char*)"    #jjjjjjgjgggggggggggggfc    ",
(char*)"    #ffffffffffffffffffffffc    ",
(char*)"    #ccccccccccccccccccccccc    "};
