/* XPM */
static char * icon_plot[] = {
/* width height num_colors chars_per_pixel */
(char*)"    48    48      250            2",
/* colors */
(char*)".. c #040204",
(char*)".# c #14862c",
(char*)".a c #a40a4c",
(char*)".b c #94ae14",
(char*)".c c #0c4418",
(char*)".d c #448254",
(char*)".e c #464752",
(char*)".f c #0582b0",
(char*)".g c #0fa4d3",
(char*)".h c #074d77",
(char*)".i c #94d204",
(char*)".j c #248d99",
(char*)".k c #076567",
(char*)".l c #44020c",
(char*)".m c #406620",
(char*)".n c #848585",
(char*)".o c #246e6c",
(char*)".p c #94a2a4",
(char*)".q c #79497f",
(char*)".r c #0c929c",
(char*)".s c #b9c6c7",
(char*)".t c #04260c",
(char*)".u c #e4e4e4",
(char*)".v c #056595",
(char*)".w c #34a3a9",
(char*)".x c #a4567c",
(char*)".y c #042543",
(char*)".z c #74667c",
(char*)".A c #4c467c",
(char*)".B c #acaaac",
(char*)".C c #d4d2d4",
(char*)".D c #0c621c",
(char*)".E c #0693ce",
(char*)".F c #0874a0",
(char*)".G c #29949c",
(char*)".H c #2c265c",
(char*)".I c #299779",
(char*)".J c #04b5fc",
(char*)".K c #41668c",
(char*)".L c #5ca644",
(char*)".M c #284e7c",
(char*)".N c #073759",
(char*)".O c #ac8294",
(char*)".P c #904a5c",
(char*)".Q c #1985a1",
(char*)".R c #b0baa4",
(char*)".S c #5d4883",
(char*)".T c #44927c",
(char*)".U c #06a4e4",
(char*)".V c #077684",
(char*)".W c #939594",
(char*)".X c #1c98a4",
(char*)".Y c #f4f4f4",
(char*)".Z c #218581",
(char*)".0 c #07557b",
(char*)".1 c #cccecc",
(char*)".2 c #2f93d7",
(char*)".3 c #2cba9c",
(char*)".4 c #346334",
(char*)".5 c #6f6271",
(char*)".6 c #0779af",
(char*)".7 c #6c3054",
(char*)".8 c #344640",
(char*)".9 c #d8d8d8",
(char*)"#. c #0485be",
(char*)"## c #443614",
(char*)"#a c #17679e",
(char*)"#b c #9c6a84",
(char*)"#c c #615889",
(char*)"#d c #04150c",
(char*)"#e c #58446c",
(char*)"#f c #2aa5c1",
(char*)"#g c #706cac",
(char*)"#h c #059bdb",
(char*)"#i c #688480",
(char*)"#j c #084244",
(char*)"#k c #5c7a2c",
(char*)"#l c #c4c4c4",
(char*)"#m c #2c95b7",
(char*)"#n c #1895b9",
(char*)"#o c #3482a8",
(char*)"#p c #a0a490",
(char*)"#q c #ececec",
(char*)"#r c #182a44",
(char*)"#s c #18324c",
(char*)"#t c #388a6a",
(char*)"#u c #98305c",
(char*)"#v c #b3b2b5",
(char*)"#w c #bcbcbc",
(char*)"#x c #e4dee0",
(char*)"#y c #596b4f",
(char*)"#z c #777a7a",
(char*)"#A c #5f5087",
(char*)"#B c #177269",
(char*)"#C c #9c9b9c",
(char*)"#D c #6c5890",
(char*)"#E c #051434",
(char*)"#F c #199dbc",
(char*)"#G c #4c5668",
(char*)"#H c #1ca7cb",
(char*)"#I c #066c9a",
(char*)"#J c #0c6430",
(char*)"#K c #0f7c9e",
(char*)"#L c #24a664",
(char*)"#M c #18ace0",
(char*)"#N c #dcdedd",
(char*)"#O c #3c224c",
(char*)"#P c #a4a5a5",
(char*)"#Q c #2c84b4",
(char*)"#R c #1c626c",
(char*)"#S c #a48eac",
(char*)"#T c #103c0c",
(char*)"#U c #052d4c",
(char*)"#V c #606298",
(char*)"#W c #4c86bc",
(char*)"#X c #37a3c4",
(char*)"#Y c #149ccf",
(char*)"#Z c #cccacc",
(char*)"#0 c #045706",
(char*)"#1 c #41456f",
(char*)"#2 c #04668a",
(char*)"#3 c #848aac",
(char*)"#4 c #2c9c9a",
(char*)"#5 c #0abcf7",
(char*)"#6 c #148ec8",
(char*)"#7 c #04adf0",
(char*)"#8 c #4ca694",
(char*)"#9 c #6c8a3c",
(char*)"a. c #ac76ac",
(char*)"a# c #7ca2bc",
(char*)"aa c #4c364c",
(char*)"ab c #b49aa4",
(char*)"ac c #8c265c",
(char*)"ad c #3c182c",
(char*)"ae c #4c72c4",
(char*)"af c #3c8234",
(char*)"ag c #085254",
(char*)"ah c #78969c",
(char*)"ai c #2c7a2c",
(char*)"aj c #b23568",
(char*)"ak c #b01e50",
(char*)"al c #415b8c",
(char*)"am c #945a4c",
(char*)"an c #8c366c",
(char*)"ao c #545a64",
(char*)"ap c #64264c",
(char*)"aq c #283c68",
(char*)"ar c #295e99",
(char*)"as c #749c14",
(char*)"at c #2c5a54",
(char*)"au c #4c964c",
(char*)"av c #587a80",
(char*)"aw c #50baa4",
(char*)"ax c #209040",
(char*)"ay c #581840",
(char*)"az c #944274",
(char*)"aA c #cc96cc",
(char*)"aB c #2fb5d4",
(char*)"aC c #287854",
(char*)"aD c #0c242c",
(char*)"aE c #8476a4",
(char*)"aF c #5c3e74",
(char*)"aG c #4c93a6",
(char*)"aH c #486ab0",
(char*)"aI c #14427c",
(char*)"aJ c #806290",
(char*)"aK c #cc76a4",
(char*)"aL c #3ca28c",
(char*)"aM c #84a23c",
(char*)"aN c #949eb4",
(char*)"aO c #542e3c",
(char*)"aP c #5c6364",
(char*)"aQ c #14562c",
(char*)"aR c #248a54",
(char*)"aS c #4c6a4c",
(char*)"aT c #379971",
(char*)"aU c #944d7c",
(char*)"aV c #17171c",
(char*)"aW c #348f82",
(char*)"aX c #743d6c",
(char*)"aY c #905680",
(char*)"aZ c #24665c",
(char*)"a0 c #589284",
(char*)"a1 c #785264",
(char*)"a2 c #289ec4",
(char*)"a3 c #2470a4",
(char*)"a4 c #175791",
(char*)"a5 c #163867",
(char*)"a6 c #187a8c",
(char*)"a7 c #607a5c",
(char*)"a8 c #788288",
(char*)"a9 c #243e1c",
(char*)"b. c #84aeb8",
(char*)"b# c #37ada7",
(char*)"ba c #076d09",
(char*)"bb c #278b87",
(char*)"bc c #5c4e74",
(char*)"bd c #5c8a54",
(char*)"be c #5c0224",
(char*)"bf c #18040c",
(char*)"bg c #1c624c",
(char*)"bh c #4c5e84",
(char*)"bi c #8d8c8c",
(char*)"bj c #fcfdfc",
(char*)"bk c #299db3",
(char*)"bl c #388ca0",
(char*)"bm c #0f2d31",
(char*)"bn c #493b71",
(char*)"bo c #474e6f",
(char*)"bp c #1c5e5c",
(char*)"bq c #483a3c",
(char*)"br c #3468b4",
(char*)"bs c #5cb6a4",
(char*)"bt c #845080",
(char*)"bu c #7c5a6c",
(char*)"bv c #847a8c",
(char*)"bw c #2c7a7c",
(char*)"bx c #158cad",
(char*)"by c #075d84",
(char*)"bz c #24abcc",
(char*)"bA c #a4ac8c",
(char*)"bB c #6e5f96",
(char*)"bC c #071b39",
(char*)"bD c #5c6ba9",
(char*)"bE c #349ee4",
(char*)"bF c #0893c0",
(char*)"bG c #b4b6b4",
(char*)"bH c #147abc",
(char*)"bI c #6c72c4",
(char*)"bJ c #0f6647",
(char*)"bK c #3c5ea4",
(char*)"bL c #343860",
(char*)"bM c #34568c",
(char*)"bN c #34724c",
(char*)"bO c #044c10",
(char*)"bP c #098bb1",
(char*)"bQ c #717171",
(char*)"bR c #adaeab",
(char*)"bS c #058cc0",
(char*)"bT c #1c3e44",
(char*)"bU c #187e64",
(char*)"bV c #288db3",
(char*)"bW c #14b6e4",
(char*)"bX c #64465c",
(char*)"bY c #24a28c",
(char*)"bZ c #a4da0c",
(char*)"b0 c #485080",
(char*)"b1 c #303060",
(char*)"b2 c #b48e9c",
(char*)"b3 c #184c78",
/* pixels */
(char*)"............................................................................................aVbj",
(char*)"...W#P.p#p#P#P#P#P#P#P.BbR#vbG#w#l.sbibQ.n#P#v.s#Z#Z#Z#Z#l#l#l#l#l#l#l#l#l#l#l#l#l#l#l#Z#l#Z.1bj",
(char*)"...W#P#P#P#P#P#P.BbRbR#vbG#w#w#l.B#z.B#CbG.Bbi.nbi#C#P#w.1.C.1.1.1.1.1#Z.1#Z#Z.1#Z.1#Z#Z.1#Z.1bj",
(char*)"...W#P#P#P#P#P#P.BbR#vbG#w#l#w.W.W#Z.9#P#Z.u.9.9#Z#w#P.W.W.W#PbG#l.1.C.9.1.C.1.1.1.1.1.1.1.1.9bj",
(char*)"...W#P#P#P.B.BbR#vbG#w#w#l.BbibR#Z.1.C#C#Z.u#N.9.9.9.C.C.C#ZbG.B#C.W#C.B.s.C.C.9.9.9.9.C.9.C.9bj",
(char*)"..#C#P.B#P.BbRbRbG#w#l#w.Wbi#l#Z#Z#Z.9bG#l#pbA#l.9.9.C.1.1.1.1.C.C.C#Z#v.B.W#C#P#w#l.9.9.9.9.9bj",
(char*)"...W.B#P.BbR#v#w#w#l.Bbi.B#Z#l#l#l#Z.C#wa7.daS.z#w.u.1.1.1#Z.1.1.1.1.C.C.9.9.C#lbG.B#p#C#P#l#Nbj",
(char*)"..#C.BbRbRbG#w#l#w.W.W#w#Z#l#w#l#l.1.9bdaW.wbVbD#S.1#N.1#Z#Z#l#Z#Z.1.C.1.C.C.9.9.9#N#N.9#w.n#Cbj",
(char*)"..#CbRbGbG#l#l.Bbi#P#Z#l#w#w#w#l#l.9bAaf#8#m.g.2#cbv.C.C.1#l#Z#l#Z#Z#Z.1.1.C.C.9.9.9.u.u.C.nbibj",
(char*)"..#PbG#w#l#w.W.W#w#Z#l#w#w#w#w#l#Z.CaSbg.obp.gbWal.Pab.u.1.1#l#Z#l#l#Z#Z#Z.1.1.C.9.9#q.1bi#P.Bbj",
(char*)"..#P#w#Z.B.n#P#Z#l.s#w#wbG#w#w#l.C#P.4#m#n#2#h#Y.K.q#b.1#N.C#Z#Z#Z#Z#Z.1#Z.1.C.C.9.u#Z.W#v.C#Pbj",
(char*)"..#v#Z.W.n#w.C#l#l#w#wbG#w#w#l.1.9#i#tbk#n#h.f#2a3#V.xb2.u.C.1.1#Z#Z#Z.1.1.1.C.9#N.C#PbR#qbG.Bbj",
(char*)"..#C#z#P.C.9#Z#l#l#w#w#w#w#l#l.C.RbN#t#f.f#7#h#aa3#WaU.x.C#N.9.1.1.1.1.1.1.9.9#N.9.B.B.Y#N.B#lbj",
(char*)"..aPaP.n#P#l.1#Z#Z#l#w#l#l#Z.C.9a7#taW#fbP#7.U.v.v#obc.7.5.u#N.9.C.C.1.C.C.9#N#N.B#P.u.Y.9#P.Cbj",
(char*)"..#z#Z#vbi.nbi#p#w#Z.1.1.1.1.9bAbN#t#B.F#2#hbS.fbSa4#1aUan.O#q#N#N.9.9.9.9#N.ubR#C.9#q.u.9.B.9bj",
(char*)"..#z#w.C.C.9#w#P.Wbi#C#v.1.u.9a7aC#nbPbS#2.F#.#7.EaI.Sa1amambi.s#N.u.u#N.u#qbR#P.9#q.u#q.9#C.ubj",
(char*)"...n.B.1.C#Z#l#Z#Z#ZbG.n#z.n#zat.jaB#6bS.U.f.F#7.Eaqbn.m.i.baa#G#3a8.s.9#qbR#C.C#q.u#q.u.C#P#qbj",
(char*)"...W#C#l.1#l#l#l#Z.1.9.u#x.Ba9bm.y#U.0bS.g#h.fbS#h.0.cbY.Z.8aAaE#DbVbV#Q.K.8.p#q#q#q#q.u#Z.B#qbj",
(char*)"..#P#C#l#Z#l#w#l#l.1#N.9.Ras.Lb#.Qag.N#E.N.0bxbSbybaaxb#b#.6#gaKbLbW#Y#K#rbV.j#oa0ah.C.u#wbR#qbj",
(char*)"..bG.W#w#Z#l#l#l.1.9.9aNbh.Kbp.Z.QbF#5.f.F.N.y#E.t#0bUaw.G#hbHa.bX.6#..y.0.g#n#4.jbwaTaf#y#v.Ybj",
(char*)"..#w.W#w.1#l#l#Z.C.C#CbcbDaHbF.v#Iby.f.v#h#h#Mag#d#d#d#j#j.E#5.MajaybCby#K.E#m.j#4aLaTaiaP#l.Ybj",
(char*)"..#l#CbG.1.C.1#N#lbvbc#gbc#I#5.f#7bPbF.k.k.k.Vag.D.IbPby#E#U#j.yaX.l.ybF.U.E#n.X.waC#T#y.W.C.Ybj",
(char*)"..#w#PbR.C.9#N#w.5.AbB#AbB.0.J#.#7bSbS.X.GaT.caQ.I.jbz#H.E#.bybC..bfaX#abS#.#Fa6#JbOaS#wbi.u#qbj",
(char*)"..#lbR#C.C.u.BbB#cbB.S.Sb0#a.F.E#h.fbS.X.GbU#0aR.I.V#H#K#h#hbyae.Nadak#1bF.V#RbJba.4ab#qbi.Y#qbj",
(char*)"..#w#wbi.9aNbh#c#D.S.S.qa5bE#a.v.f.FbSbk.j.D#0aR.Z.Q#F#2#7#7.hbKaIap#ube.f.raW#L.DbQbj.9#C.Y#qbj",
(char*)"..#w.1#z#9#ibD#V#A.S.S#1b3.2ar#I#I#hbPbzagba.#.I.Ibk#HbS.J#h.6#aa5...7akaybb.3aQbq#wbj#l#P.Y#qbj",
(char*)"..#w.u#zaM#k.KbI#A.S.Saqbrar.F.UbS.F.V#B.t#0.##B.V#I#IbF#5.E#hbH.y..azac.aaOaDaV#Cbj#q#vbG.Y.Ybj",
(char*)"..#w#Nbi#l.saP#s.A.qaFb0br.M#I#5bP.g.XbJbO#Jbx#nbPbF.V.F.U.6#h#7#E#OaX#uajajad#z.Ybj.u#v#l.Y.Ybj",
(char*)"..#w.9.W.B#x.ubQaV#rbL.AbMaHby#5.f#H.k#T#t#4#Fbxbx#YbF#n.F#I#7#7.ybn.qazajaja1a8#p#l#l#P.C.Y#qbj",
(char*)"..#w.9.B#C.C.Y.C.5a5bya5#Ua5.vbS#MbF.4asawbb#F#n#n.gbx.gbF.0.U.JbCaF#AaY#ua1.1#q#w#C#z#z.u.Y.Ybj",
(char*)"..#w.9#l#C.1.u#q#laoa5#a.0#U.y#E#UafbZauaLbbbk.Qbx#n.F#M#n.QbF#I.yb1bBbtbu#l.Y.Y.Y#qbR.Bbj#q#qbj",
(char*)"..#w.9#l#C#l.u#x.Y#wbna5a4.0.y.y#EaD##.T.Tbw#XbVbV#n#K#M.V#f#F.h.Nb3aJaJ.C.Y.Y#qbj#Z.B#q.Y#q.Ybj",
(char*)"..#w.C.Cbi#w.u.u.C#vbi.e#rb3.Nb3bH.H#e.9#lb.aGaGa2bk#f#f.Vbz#faZ#s#Qbh#v#q#q#q.Y.9bG.Cbj#q.Y#qbj",
(char*)"..bG.C#x.p#w#q#Z#CbR.Y#l.e.M.2a4.Haa#v.u#q#q#q.1b.aG#ma2.waB.Z.TbT#Qa#.u.Y#q.Y#q#w#lbj#q.Y.Y.Ybj",
(char*)"..#w.C#N#P#w#l.WbG#q.u.u#l#c#1b0bobG.u.u.u#x.u.u#q.u.sahaG#Xblbs.8av#N.Y#q#qbj.1#w.u.Y.Y#q.Y#qbj",
(char*)"..#w.C.9#wbv.n#Z#q#N#x#x.u.u#ZaN.C.u.u.u#N#N#N#N.u#q#q#q#q.saha0#G.1.Y#q#q.Y.9#w.9.Y.Y#q.Y.Y.Ybj",
(char*)"..#w.1#N#lbQbi.C.u.u#N#N.u.u.u.u.u.u#N.9#x#N#N.u#x.u.u#q#q#q#q.1.p#q#q.Y#q.Y#l.C.Y.Y.Y.Y#q.Y.Ybj",
(char*)"..#w.C.C.9.C#Pbi#C#w#N.u#x#N#x.u#N#N#x#N#N#N#N#N#N.u.u.u.u.Y#q.u#P#q.Y#q.Y#Z#l.u.Y.Y#q.Y.Y.Y.Ybj",
(char*)"..bG.1.C.C.9.u.9#w#P.W#v.9.u.u.u#N.u#N#N#x#N#x#N.u#N.u.u#q#q#q.u.B#q.Y.Y.ubG.9bj.Y.Y.Y.Y.Y.Y.Ybj",
(char*)"..#w.C.1.C.C.9#N#N#x.CbR.W#P#l.u.u.u.u.u.u.u.u#N.u.u.u.u.u#q#q#NbR#q.Y.Y#w#Z.Y.Y.Y.Y.Y.Y.Y.Ybjbj",
(char*)"..#w.1.1.C.C.C.9.9.9#x.u#N#l#P.WbG.9.u.u.u.u.u.u.u.u.u#q#q#q#q.9.B#qbj#l#w.ubj#q.Y.Y.Y.Y.Y.Ybjbj",
(char*)"..#w.C.C.1.C.C.C.9#N.9#N.u.u.u.CbG#C.B.1.u#q#q.u#q.u#q.u#q#q#q.1.B.Y.u.B#N.Y.Y.Y.Y.Y.Y.Ybj.Ybjbj",
(char*)"..#w.C.1.C.C.C.9.C.9.9#N#N.u.u.u#q.u#Z.B#PbG#N#q#q#q#q#q#q#q.Y#l.B.Y.B#l#qbj.Y.Y.Y.Y.Ybj.Ybjbjbj",
(char*)"...s.C.C.C.C.C.C.9.9.9#N.9#N#N.u.u.u#q#q.9#w#P.B.1#q.Y#q.Y.Y#q#w#v.s.B#qbj.Y.Y.Y.Ybj.Y.Ybj.Ybjbj",
(char*)"..#w.C.C.C.9.9.9.9.9.9#N#N#N#x#N.u.u.u.u#q#q#q#Z.B#P#w.u.Y.Y.Y#w#P.W#x.Y.Y.Y.Y.Y.Y.Ybjbj.Ybjbjbj",
(char*)"..#l.9.C.C.C.9.9.9.9#N.9.9#N#N#x#N.u.u#q.u#q#q#q.Y.u#w#PbR.1.YbRbQ#l.Ybj.Y.Y.Ybj.Ybj.Ybjbjbjbjbj",
(char*)"..#l.C.9.9.9.9.9.9.9#N#N#x#N#x#N.u.u.u.u#q.u#q#q#q#q.Y#q.C.B.p#z.B#q.Y.Y.Ybj.Y.Ybj.Ybjbjbjbjbjbj",
(char*)"bjbjbjbjbjbjbjbjbjbjbjbjbjbjbjbjbjbjbjbjbjbjbjbjbjbjbjbjbjbjbjbjbjbjbjbjbjbjbjbjbjbjbjbjbjbjbjbj"
};
