/* XPM */
static const char * icon_shapes1[] = {
/* width height ncolors chars_per_pixel */
(char*)"32 32 16 1",
/* colors */
(char*)"  c #000000000000",
(char*)"! c #800000000000",
(char*)"# c #000080000000",
(char*)"$ c #800080000000",
(char*)"% c #000000008000",
(char*)"& c #800000008000",
(char*)"' c #000080008000",
(char*)"( c #800080008000",
(char*)") c #c000c000c000",
(char*)"* c #ff0000000000",
(char*)"+ c #0000ff000000",
(char*)", c #ff00ff000000",
(char*)"- c #00000000ff00",
(char*)". c #ff000000ff00",
(char*)"/ c #0000ff00ff00",
(char*)"0 c none",
/* pixels */
(char*)"                                ",
(char*)"00000000000000000000000000000000",
(char*)"00000000000000000000000000000000",
(char*)"00000000*00000000000000000000000",
(char*)"0000000***0000000000000000000000",
(char*)"000000*****00000000-----00000000",
(char*)"00000*******000000-------0000000",
(char*)"0000*********0000---------000000",
(char*)"000***********00-----------00000",
(char*)"00*************0-----------00000",
(char*)"0000000000000000-----------00000",
(char*)"0000000000000000-----------00000",
(char*)"00000000........0---------000000",
(char*)"00000000........00-------0000000",
(char*)"00000000........000-----00000000",
(char*)"00000000........0000000000000000",
(char*)"00000000........0000000000000000",
(char*)"00000000........           00000",
(char*)"00000   ........((((((((((  0000",
(char*)"0000  ((((((((((00(((((((((  000",
(char*)"0000  (((((((((((((((((((((  000",
(char*)"00000    ((((((((((((((     0000",
(char*)"000000                    000000",
(char*)"000000                   0000000",
(char*)"0000000            0     0000000",
(char*)"00000000           0    00000000",
(char*)"00000000                00000000",
(char*)"0000000                  0000000",
(char*)"0000000                   000000",
(char*)"0000000                    00000",
(char*)"000000                     00000",
(char*)"00000                       0000"
} ;
