/* XPM */
static const char* tapes[] = {
/* width height ncolors chars_per_pixel */
(char*)"32 32 8 1",
/* colors */
(char*)"  c black",
(char*)". c LimeGreen",
(char*)"X c green",
(char*)"o c DarkSlateGrey",
(char*)"O c SeaGreen",
(char*)"+ c none",
(char*)"@ c SlateGrey",
(char*)"# c PaleGreen",
/* pixels */
(char*)"++++++++++++++XX++++++++++++++++",
(char*)"+++++++++++++XXXX+++++++++++++++",
(char*)"++++++++++++XXXXXX++++++++++++++",
(char*)"+++++++++++XXXXXXXX+++##++++++++",
(char*)"++++++++++XXX    XXX+####+++++++",
(char*)"+++++++++XXX      X@######++++++",
(char*)"++++++++XXX   ++   ########+++++",
(char*)"+++++++XXXX  +  + ###    ###++++",
(char*)"++++++XXXXX  +  +###      ###+++",
(char*)"+++++XXXXXX   ++###   ++   ###++",
(char*)"++++XXXXXXXX   ####  +  +  ####+",
(char*)"+++XXXX  XXXX #####  +  +  #####",
(char*)"++XXXX ++ XX@######   ++   ####O",
(char*)"+XXXX +  + @########      ####O ",
(char*)"+@XXX +  + ####  ####    ####O@ ",
(char*)"+o XX  ++ #### ++ ##### ####O@ +",
(char*)"+ o XX   #### +  + ### ####O@ ++",
(char*)"++ o XX  @### +  + ## ####O@ +++",
(char*)"+++ o XX@oO##  ++  # ####O@ ++++",
(char*)"++++ o X@ @O##      ####O@ +++++",
(char*)"+++   o X@ @O##   #####O@ ++++++",
(char*)"+++ .. o X@ @O########O@ +++++++",
(char*)"+++  .. o  o @O######O@ ++++++++",
(char*)"+++ o .. oo   @O####O@ +++++++++",
(char*)"++++ o ..   .. @O##O@ ++++++++++",
(char*)"+++++ o ....... @OO@ +++++++++++",
(char*)"++++++ o ......  @@ ++++++++++++",
(char*)"+++++++ o .... o   +++++++++++++",
(char*)"++++++++ o .. o ++++++++++++++++",
(char*)"+++++++++ o  o +++++++++++++++++",
(char*)"++++++++++ oo ++++++++++++++++++",
(char*)"+++++++++++  +++++++++++++++++++"
};
