/* XPM */
static char *icon_TriCamera[] = {
(char*)"32 32 5 1",
(char*)" 	c peru",
(char*)".	c black",
(char*)"X	c slate grey",
(char*)"o	c grey",
(char*)"O	c white",
(char*)"                                ",
(char*)"              .....             ",
(char*)"             ..XXX..            ",
(char*)" ...... ..  ..X...X..  ....     ",
(char*)" ...... .. ..X.....X.. ....     ",
(char*)"  ..........................    ",
(char*)" ..XXXXXXXXXXXXXXXXXXXXXXXX..   ",
(char*)" ............X.....X.........   ",
(char*)" ............................   ",
(char*)" .............ooooo..........   ",
(char*)" ............oo...oo.........   ",
(char*)" ....XX.....oo.OOO.oo........   ",
(char*)" ....XX.....o.OOOOO.o........   ",
(char*)" ....XX.....o.OOOOO.o........   ",
(char*)" ...........oo.OOO.oo........   ",
(char*)" ............oo...oo.........   ",
(char*)" .............ooooo..........   ",
(char*)" ............................   ",
(char*)" ............................   ",
(char*)"  ..........................    ",
(char*)"             .....              ",
(char*)"            .......             ",
(char*)"           .........            ",
(char*)"          ... ... ...           ",
(char*)"         ...  ...  ...          ",
(char*)"        ...   ...   ...         ",
(char*)"       ...    ...    ...        ",
(char*)"      ...     ...     ...       ",
(char*)"     ...      ...      ...      ",
(char*)"    ...       ...       ...     ",
(char*)"    ..        ...        ..     ",
(char*)"                                "};
