/* XPM */
static char *icon_update[] = {
/* width height num_colors chars_per_pixel */
(char*)"    29    25      128            2",
/* colors */
(char*)".. c #000000",
(char*)".# c #00ff00",
(char*)".a c #0000ff",
(char*)".b c #5bba02",
(char*)".c c #bb0101",
(char*)".d c #f0efe3",
(char*)".e c #7e0c03",
(char*)".f c #b4b4ca",
(char*)".g c #d9dde3",
(char*)".h c #989898",
(char*)".i c #008100",
(char*)".j c #adcd9e",
(char*)".k c #a9a7e3",
(char*)".l c #efb60f",
(char*)".m c #4a3803",
(char*)".n c #cc9800",
(char*)".o c #7891f8",
(char*)".p c #7f7f00",
(char*)".q c #ffffff",
(char*)".r c #000098",
(char*)".s c #a87e06",
(char*)".t c #326598",
(char*)".u c #667cee",
(char*)".v c #00007f",
(char*)".w c #ffff0b",
(char*)".x c #6b737b",
(char*)".y c #f9d463",
(char*)".z c #7d83a4",
(char*)".A c #323298",
(char*)".B c #0a0a7a",
(char*)".C c #367e1d",
(char*)".D c #73e605",
(char*)".E c #e0d09c",
(char*)".F c #dfe0db",
(char*)".G c #919348",
(char*)".H c #84879b",
(char*)".I c #ff0000",
(char*)".J c #838383",
(char*)".K c #ffffcc",
(char*)".L c #e4a79b",
(char*)".M c #efefef",
(char*)".N c #fef104",
(char*)".O c #c9dcff",
(char*)".P c #1e1e8e",
(char*)".Q c #656565",
(char*)".R c #0038e5",
(char*)".S c #7be90c",
(char*)".T c #a9c5fe",
(char*)".U c #00c02c",
(char*)".V c #b4b4b4",
(char*)".W c #474747",
(char*)".X c #695b30",
(char*)".Y c #008b21",
(char*)".Z c #4a9334",
(char*)".0 c #d6d6d6",
(char*)".1 c #bf5109",
(char*)".2 c #899cf5",
(char*)".3 c #e9b417",
(char*)".4 c #032db4",
(char*)".5 c #fe4b4b",
(char*)".6 c #d37b79",
(char*)".7 c #7e5e00",
(char*)".8 c #a9a7a0",
(char*)".9 c #ffff65",
(char*)"#. c #ffcc32",
(char*)"## c #f1e49f",
(char*)"#a c #f4f9fa",
(char*)"#b c #cccccc",
(char*)"#c c #e7ac01",
(char*)"#d c #cccc98",
(char*)"#e c #97b8ff",
(char*)"#f c #33851c",
(char*)"#g c #60778c",
(char*)"#h c #ffdb3c",
(char*)"#i c #436af4",
(char*)"#j c #839568",
(char*)"#k c #605d54",
(char*)"#l c #e8e6da",
(char*)"#m c #dc0000",
(char*)"#n c #323232",
(char*)"#o c #2bd800",
(char*)"#p c #b0aec0",
(char*)"#q c #1d1f2b",
(char*)"#r c #a9a7d0",
(char*)"#s c #246eb0",
(char*)"#t c #7b7a79",
(char*)"#u c #dae3ff",
(char*)"#v c #c8c5b9",
(char*)"#w c #5bca35",
(char*)"#x c #b28400",
(char*)"#y c #65cc00",
(char*)"#z c #c4c9de",
(char*)"#A c #8189b4",
(char*)"#B c #989865",
(char*)"#C c #e5efff",
(char*)"#D c #717cbc",
(char*)"#E c #8bd464",
(char*)"#F c #374c71",
(char*)"#G c #3d45b5",
(char*)"#H c #f0aea2",
(char*)"#I c #e6e6e6",
(char*)"#J c #aaa7be",
(char*)"#K c #0000bd",
(char*)"#L c #ffc418",
(char*)"#M c #ff9315",
(char*)"#N c #f1e4b5",
(char*)"#O c #cae69c",
(char*)"#P c #48981e",
(char*)"#Q c #b9cba3",
(char*)"#R c #4b7cb2",
(char*)"#S c #ce953b",
(char*)"#T c #e4ceaa",
(char*)"#U c #00a327",
(char*)"#V c #94a6f7",
(char*)"#W c #ff1818",
(char*)"#X c #8db1ff",
(char*)"#Y c #b8caff",
(char*)"#Z c #a8bbf6",
(char*)"#0 c #d57f07",
(char*)"#1 c #9898cc",
(char*)"#2 c #34ff51",
(char*)"#3 c #6464de",
(char*)"#4 c #ae4f4f",
(char*)"#5 c #ffe517",
(char*)"#6 c #fbdb7c",
(char*)"#7 c #001e7e",
(char*)"#8 c #eeecdf",
(char*)"#9 c #82681c",
/* pixels */
(char*)".d.q.q.q.q.d.q.q.q.q.d.q.q.q.q.d.q.q.q.q.d.q.q.q.q.d.q.q.q",
(char*)".q.q.q.q.d.q.q.q.q.d.q.q.q.q.d.q.q.q.q.d.q.q.q.q.d.q.q.q.q",
(char*)".q.q.q.d.q.q.q.q.d.q.q.q.q.d.q.q.q.q.d.q.q.q.q.d.q.q.q.q.d",
(char*)".q.q.d.q.q.q.q.d.q.q.q.q.d.q.q.q.q.d.q.q.q.q.d.q.q.q.q.d.q",
(char*)".q.d.q.q.q.q.d.q.q.q.q.d.q.q.q.q.d.q.q.q.q.d.q.q.q.q.d.q.q",
(char*)".d.q.q.q.q.d.q.q.q.q.d.q.q.q#7#p#7.h.q.q.d.q.q.q.q.d.q.q.q",
(char*)".q.q.q.q.d.q.q.q.q.d.q.q.q.q#p#7#7#7.4.d.q.q.q.q.d.q.q.q.q",
(char*)".q.q.q.d.q.q.q.q.d.q#7.q.q.d.q.q.q.4#p.4.q.q.q.d.q.q.q.q.d",
(char*)".q.q.d.q.q.q.q.d.q#7#7#7.d.q.q.q.q.d.4#7.h.q.d.q.q.q.q.d.q",
(char*)".q.d.q.q.q.q.d.q#7#7#7#p#7.q.q.q.d.q.q#7.4.d.q.q.q.q.d.q.q",
(char*)".d.q.q.q.q.d.q#7#7#7#p#7#7#7.q.d.q.q.q#7.f.q.q.q.q.d.q.q.q",
(char*)".q.q.q.q.d.q.q.q.q#p#7#7.q.q.d.q.q.q.q#p.4.q.q.q.d.q.q.q.q",
(char*)".q.q.q.d.q.q.q.q.d.4#7.h.q.d.q.q.q.q.d#7.4.q.q.d.q.q.q.q.d",
(char*)".q.q.d.q.q.q.q.d.q.h#7.4.d.q.q.q.q.d.4#7.h.q.d.q.q.q.q.d.q",
(char*)".q.d.q.q.q.q.d.q.q.q.4#p.4.q.q.q.d.4#7.4.q.d.q.q.q.q.d.q.q",
(char*)".d.q.q.q.q.d.q.q.q.q.d.4#7.4.4.f.4#7.4.q.d.q.q.q.q.d.q.q.q",
(char*)".q.q.q.q.d.q.q.q.q.d.q.q.h.4.f.4.4.h.q.d.q.q.q.q.d.q.q.q.q",
(char*)".q.q.q.d.q.q.q.q.d.q.q.q.q.d.q.q.q.q.d.q.q.q.q.d.q.q.q.q.d",
(char*)".q.q.d.q.q.q.q.d.q.q.q.q.d.q.q.q.q.d.q.q.q.q.d.q.q.q.q.d.q",
(char*)".q.d.q.q.q.q.d.q.q.q.q.d.q.q.q.q.d.q.q.q.q.d.q.q.q.q.d.q.q",
(char*)".d.q.q.q.q.d.q.q.q.q.d.q.q.q.q.d.q.q.q.q.d.q.q.q.q.d.q.q.q",
(char*)".q.q.q.q.d.q.q.q.q.d.q.q.q.q.d.q.q.q.q.d.q.q.q.q.d.q.q.q.q",
(char*)".q.q.q.d.q.q.q.q.d.q.q.q.q.d.q.q.q.q.d.q.q.q.q.d.q.q.q.q.d",
(char*)".q.q.d.q.q.q.q.d.q.q.q.q.d.q.q.q.q.d.q.q.q.q.d.q.q.q.q.d.q",
(char*)".q.d.q.q.q.q.d.q.q.q.q.d.q.q.q.q.d.q.q.q.q.d.q.q.q.q.d.q.q"
};
