/* XPM */
static const char * icon_video_camera[] = {
/* width height ncolors chars_per_pixel */
(char*)"32 32 5 1",
/* colors */
(char*)"  c black",
(char*)". c grey",
(char*)"X c none",
(char*)"o c yellow",
(char*)"O c SlateGrey",
/* pixels */
(char*)"XXXXXXXXXXXXXXXXXXXXXXXXXXXXXXXX",
(char*)"XXXXXXXXXXXXXXXXXXXXXXXXXXXXXXXX",
(char*)"X XXXXXXXXXXXXXXXXXXXXXXXXXXXXXX",
(char*)"X  X         X       XXXXXXXXXXX",
(char*)"X X ......... OOOOOOO XXXXXX XXX",
(char*)"X X .........          XXXX X XX",
(char*)"X  X          ........     XX OX",
(char*)"X XX O ............... . . XX OO",
(char*)"XXXX O ............... . . XX OO",
(char*)"XXXX O ............... . . XX OO",
(char*)"XXXX O ............... . . XX OO",
(char*)"XXXX O ............... . . XX OO",
(char*)"XXXX O ...............     XX OO",
(char*)"XXXXX  .  ..... . . .. OOOO X OO",
(char*)"XXXXXX ............... OOOOO OOO",
(char*)"XXXXXXX               OOOXXXXOOX",
(char*)"XXXXXXXXOOOOOOOOOOOOOOOOOXXXXXXX",
(char*)"XXXXXXXXXOOOOOOOOOOOOOOOXXXXXXXX",
(char*)"XXXXX               XXXXXXXXXXXX",
(char*)"XXXXX oXoXoXoXoXoXo OXXXXXXXXXXX",
(char*)"XXXXX XoXoXoXoXoXoX OOXXXXXXXXXX",
(char*)"XXXXX oXoX               XXXXXXX",
(char*)"XXXXX Xo o oXoXoXoXoXoXo OXXXXXX",
(char*)"XXXXX o X  XoXoXoXoXoXoX OOXXXXX",
(char*)"XXXXX Xo o oX XoXoXoX Xo OOXXXXX",
(char*)"XXXXX oXoX X X X   X X X OOXXXXX",
(char*)"XXXXX XoXo oX XoXoXoX Xo OOXXXXX",
(char*)"XXXXX      XoXoXoXoXoXoX OOXXXXX",
(char*)"XXXXXXOOOO oXoXoXoXoXoXo OOXXXXX",
(char*)"XXXXXXXOOO XoXoXoXoXoXoX OOXXXXX",
(char*)"XXXXXXXXXX               OOXXXXX",
(char*)"XXXXXXXXXXXOOOOOOOOOOOOOOOOXXXXX"
};
