/* XPM */
static char * icon_pallet[] = {
/* width height num_colors chars_per_pixel */
"    48    48       99            2",
/* colors */
".. c #000000",
".# c #000800",
".a c #0041ff",
".b c #082008",
".c c #082018",
".d c #0830ff",
".e c #182018",
".f c #290018",
".g c #292073",
".h c #293029",
".i c #293073",
".j c #422029",
".k c #424129",
".l c #425142",
".m c #520018",
".n c #520029",
".o c #523008",
".p c #523018",
".q c #523029",
".r c #524118",
".s c #524129",
".t c #524152",
".u c #525129",
".v c #525152",
".w c #630029",
".x c #632018",
".y c #633008",
".z c #633018",
".A c #634142",
".B c #635152",
".C c #636142",
".D c #636152",
".E c #730842",
".F c #732042",
".G c #732052",
".H c #736152",
".I c #840042",
".J c #8408ff",
".K c #846152",
".L c #847142",
".M c #847152",
".N c #84beb5",
".O c #9408ff",
".P c #943052",
".Q c #946152",
".R c #947142",
".S c #947152",
".T c #948652",
".U c #94beb5",
".V c #a57152",
".W c #a57163",
".X c #a58652",
".Y c #a58663",
".Z c #a59652",
".0 c #a59663",
".1 c #a5aea5",
".2 c #b50063",
".3 c #b50852",
".4 c #b55163",
".5 c #b57152",
".6 c #b57163",
".7 c #b58652",
".8 c #b58663",
".9 c #b59652",
"#. c #b59663",
"## c #b59673",
"#a c #b5ae63",
"#b c #ce2063",
"#c c #ce8663",
"#d c #ce9663",
"#e c #ce9673",
"#f c #ceae63",
"#g c #ceae73",
"#h c #de3063",
"#i c #de7129",
"#j c #de7142",
"#k c #de8642",
"#l c #de9663",
"#m c #de9673",
"#n c #deae63",
"#o c #deae73",
"#p c #deae84",
"#q c #debe73",
"#r c #deefff",
"#s c #ef7142",
"#t c #efae73",
"#u c #efae84",
"#v c #efbe52",
"#w c #efbe73",
"#x c #efbe84",
"#y c #ff0073",
"#z c #ff0873",
"#A c #ff4100",
"#B c #ff5100",
"#C c #ffbe52",
"#D c #ffdf00",
"#E c #ffdfb5",
"#F c #ffef00",
"#G c #ffffff",
/* pixels */
"........................................................#t#o#o..................................",
"..............................................#p#q#o#o#o#o#o#f#o#f.v............................",
"......................................#w#t#q#t#o#o#o#l#o#o#l#m#n#m#f#m.v........................",
"..............................#x#q#u#q#u#q#m#q#o#n#o#q#o#f#o#f#o#f#e#f#e.v......................",
"........................#u#w#u#w#t#w#t#n#t#o#o#o#t#o#o#n#m#n#m#f#m#f#m#f#m.v.v..................",
"....................#w#x#w#x#q#t#o#u#q#m#q#o#o#l#o#o#z#y#z#z#z#y#z#z#f#e#f#e.v.v................",
"................#x#w#u#w#t#t#A#A#A#A#A#B#A#A#o#o#o#n#z#z#z#z#z#z#z#z#m#d#e#d#d.v.v..............",
"..............#x#w#x#t#x#q#u#A#B#B#B#B#B#A#B#q#o#e#n#z#z#z#y#z#z#z#y#f#e#a#d#a#d.v..............",
"............#x#w#u#t#t#w#t#w#B#A#A#B#B#A#A#B#o#n#m#n#z#z#z#z#z#z#z#z#e#d#d#d#d.9#c.v............",
"..........#x#w#t#w#x#q#t#o#u#A#B#B#B#A#B#B#B#f#o#f#o#z#y#z#z#z#y#z#z#a#e.9#e#.#e#..v............",
"..........#w#u#w#u#w#t#t#t#q#A#A#A#B#A#B#A#A#m#f#m#f#z#z#z#z#z#z#z#z#d#d#d#.#c#.#c#..v..........",
"........#w#x#t#x#n#u#q#t#q#m#B#B#B#B#A#B#B#B#g#o#f#e#z#z#z#y#z#z#z#y#a#d#..0#.#.#..X.v..........",
"........#u#w#u#w#t#n#t#q#t#o#B#A#A#B#B#B#A#A#m#f#m#f#z#z#z#z#z#z#z#z#d.9#c#.#c#.#c#..X..........",
"......#x#w#t#q#u#q#u#q#m#q#o#A#B#B#B#A#B#B#B#f#e#f#e#f#e#f#e.9#e#z#e.9#e#.#.#..X#..X.0.v........",
"......#w#D#F#D#D#D#D#D#F#o#o#o#o#o#n#m#f#m#f#m#f#e#f#m#d#d#d#d.v#z.9#c#.#c#.#d.9.Y.9.Y.v........",
"....#w#x#D#D#F#F#F#D#F#F#q#o#q#o#f#o#f#o#f#e#f#e#f#e#f#e.0.4#h#z.I##.J.J.J.J.J.J.J.J.0.X........",
"....#u#w#D#F#D#F#D#F#D#F#t#l#o#n#m#n#m#f#m#f#m#f#m.9.8.v.P#b#z#z.w#..J.J.J.J.J.J.J.J.X.X.v......",
"....#q#u#F#F#F#D#F#F#F#D#o#o#g#l#g#o#f#e#f#e#f#e.9.B.A.G.E.2#z.3.s.0.J.O.J.J.J.O.J.O.Z.Y.v......",
"....#t#q#D#F#D#D#D#F#D#D#o#n#m#f#m#f#m#f#e#f#d.9.B.A.F.E.I.I#z.I.q.0.O.J.J.J.O.J.J.J.X.X.v......",
"....#q#t#D#D#F#F#F#D#F#F#g#o#f#o#f#e#f#e#f#e.9.B.l.h.c.n.I.I.3.n.k.8.J.J.J.J.J.J.J.J.0.Y.T......",
"....#t#q#D#F#D#F#D#F#D#F#m#n#m#f#m#f#m#f#l#d.H.u.j.#...m.w.m.E.r.q.0.O.J.J.J.J.J.O.J.Y.X.5.v....",
"....#q#m#F#F#F#D#D#F#F#D#g#o#f#e#f#e#f#e#f.7.C.h.c.....f.f.n.I.s.s.8.J.J.J.O.J.J.J.J.X.Y.T.v....",
"....#t#o#o#o#o#o#o#n#m#f#m#f#m#f#e#f#e#d#e#..q.e.......#.f.n.w.s.q.Z.O.J.J.J.O.J.O.J.6.T.W.T....",
"....#q#o#o#o#l#o#f#o#f#o#d#e#f#e#f#e#f#e#a.8.l...#...#.f.f...k.s.k.8.0.X.Z.Y.Z.Y.T.Y.T.Y.T.v....",
"....#o#n#l#o#o#n#m#n#m#f#m#f#m#f#l#d#d#d#d.D.#.....f.#.#...r.q.s.8.X.8.T.8.T.8.T.5.T.W.X.R.X....",
"......#o#o#o#f#o#f#m#f#e#f#e#f#e#f#e.9.v#.#e.v...#.#.#.s.s.s.k.s.0.Y.X.Y.Y.X.X.Y.T.Y.X.X.T.v....",
"......#o#o#n#m#f#m#f#m#f#e#f#e#d#d#d.v.U#r#G.1...t.T.q.s.q.s.q.X.8.T.8.a.a.a.d.a.a.a.d.X.S.T....",
"........#f#m#g#o#f#e#f#e#f#e#f#e#a.v.N#r.N.i.b.v.Z.s.k.s.k.8.0.Y.Z.Y.Z.a.a.a.a.a.a.a.a.V.T.S....",
"........#m#n#m#f#m#f#m#f#l#d#d#d.v.U#r.U.g.#.i.X.q.s.q.Z.8.X.8.T.8.T.8.a.a.a.a.a.a.a.a.T.R.S....",
"..........#o#f#e#f#e#f#e#f#e.9.v.N#r.N.g.c.i.Z.s.s.s.0.8.0.X.X.Y.Y.X.X.a.a.a.a.a.a.a.a.W.T.R....",
"............#m#f#e#f#e#d#d#d.v.U#r.N.g.#.g.X.q.s.q.Z.8.X.8.T.8.T.8.X.8.a.a.a.d.a.a.a.d.S.R.S....",
"................#f#e#f#e#a#G.1.v.N.g.b.i.Z.s.k.s.0.8.0.X.Z.Y.Z.Y.T.Y.T.a.a.a.a.a.a.a.a.V.T.T....",
"....................#e#d.z#i#E.1.l.#.i.X.q.s.q.Z.8.X.8.T.8.T.8.T.5.X.W.a.a.a.a.a.a.a.a.R.R.v....",
".......................z#k#E#C#E.p.i.Z.s.s.s.0.8.0.X.X.Y.Y.X.X.Y.T.Y.T.a.a.a.a.a.a.a.a.S.T.S....",
".....................x#i#E#C#s.o.v.X.q.s.q.Z.8.X.8.T.8.T.8.X.8.T.W.X.R.X.V.T.V.S.V.S.V.S.S.v....",
"...................z#k#E#v#j.o.v.1.s.k.s.0.8.0.X.Z.Y.Z.Y.T.Y.T.Y.T.X.T.S.T.S.T.R.T.S.T.M.M.v....",
".................z#i#E#C#s.y.v.1.8.X.q.Z.8.X.8.T.8.T.8.T.5.X.R.v.........V.S.R.R.S.R.S.R.M......",
"...............z#k#E#C#j.p.v#G.v.0.8.0.X.0.X.X.Y.Y.X.X.Y.T.Y.v...v.v.v.v...S.S.S.T.S.S.S.M......",
".............x#i#E#C#s.p.v#G.v.v.v.......8.X.Y.X.X.X.X.T.W.X...v.v...........V.S.S.R.M.R.v......",
"...........z#k#E#v#j.o.v#G.v.v.v...........Y.Z.Y.Z.Y.T.Y.T.X...v.............T.S.M.S.M.S.v......",
".........z#i#E#C#s.y.v#G.v.v.v...............X.X.V.X.V.T.V.T...v.............S.R.M.R.M.v........",
".......z#k#E#C#j.p.v#G.v.v.v...................Y.T.Y.T.X.T.R...v.............S.S.M.S.L.v........",
".....x#i#E#C#s.p.v#G.v.v.v.......................W.T.V.T.X.T.V...............M.R.M.L.M..........",
"...z#k#E#v#j.o.v#G.v.v.v...........................v.T.R.T.T.T.S...........S.M.S.L.K............",
".z#i#E#C#s.y.v#G.v.v.v...............................v.T.R.S.V.R.R.R.T.R.Q.R.M.L.M..............",
"#k#E#C#j.p.v#G.v.v.v...................................v.v.V.S.S.S.S.S.S.M.S.L..................",
"#E#C#s.o.v#G.v.v.v.......................................v.v.v..................................",
"#v#j.o.v#G.v.v.v.............................................v.v.v.............v.v.............."
};
