# This file uses centimeters as units for non-parametric coordinates.

mtllib imm4.mtl
g default
v 0.508939 0.575234 -0.195682
v 0.508939 0.575234 -2.195682
v 0.508939 -0.424766 -0.195682
v 0.508939 -0.424766 -2.195682
v -0.491061 0.575234 -0.195682
v -0.491061 0.575234 -2.195682
v -0.491061 -0.424766 -0.195682
v -0.491061 -0.424766 -2.195682
v 0.258939 0.325234 0.804318
v 0.258939 0.325234 -0.195682
v 0.258939 -0.174766 0.804318
v 0.258939 -0.174766 -0.195682
v -0.241061 0.325234 0.804318
v -0.241061 0.325234 -0.195682
v -0.241061 -0.174766 0.804318
v -0.241061 -0.174766 -0.195682
v 0.133939 0.200234 1.804318
v 0.133939 0.200234 0.804318
v 0.133939 -0.049766 1.804318
v 0.133939 -0.049766 0.804318
v -0.116061 0.200234 1.804318
v -0.116061 0.200234 0.804318
v -0.116061 -0.049766 1.804318
v -0.116061 -0.049766 0.804318
vn 0.000000 0.000000 1.000000
vn 0.000000 0.000000 1.000000
vn 0.000000 0.000000 1.000000
vn 0.000000 0.000000 1.000000
vn 0.000000 0.000000 1.000000
vn 0.000000 0.000000 1.000000
vn 0.000000 1.000000 0.000000
vn 0.000000 1.000000 0.000000
vn 0.000000 1.000000 0.000000
vn 0.000000 1.000000 0.000000
vn 0.000000 1.000000 0.000000
vn 0.000000 1.000000 0.000000
vn 1.000000 0.000000 0.000000
vn 1.000000 0.000000 0.000000
vn 1.000000 0.000000 0.000000
vn 1.000000 0.000000 0.000000
vn 1.000000 0.000000 0.000000
vn 1.000000 0.000000 0.000000
vn -1.000000 0.000000 0.000000
vn -1.000000 0.000000 0.000000
vn -1.000000 0.000000 0.000000
vn -1.000000 0.000000 0.000000
vn -1.000000 0.000000 0.000000
vn -1.000000 0.000000 0.000000
vn 0.000000 0.000000 -1.000000
vn 0.000000 0.000000 -1.000000
vn 0.000000 0.000000 -1.000000
vn 0.000000 0.000000 -1.000000
vn 0.000000 0.000000 -1.000000
vn 0.000000 0.000000 -1.000000
vn 0.000000 -1.000000 0.000000
vn 0.000000 -1.000000 0.000000
vn 0.000000 -1.000000 0.000000
vn 0.000000 -1.000000 0.000000
vn 0.000000 -1.000000 0.000000
vn 0.000000 -1.000000 0.000000
vn 0.000000 0.000000 1.000000
vn 0.000000 0.000000 1.000000
vn 0.000000 0.000000 1.000000
vn 0.000000 0.000000 1.000000
vn 0.000000 0.000000 1.000000
vn 0.000000 0.000000 1.000000
vn 0.000000 1.000000 0.000000
vn 0.000000 1.000000 0.000000
vn 0.000000 1.000000 0.000000
vn 0.000000 1.000000 0.000000
vn 0.000000 1.000000 0.000000
vn 0.000000 1.000000 0.000000
vn 1.000000 0.000000 0.000000
vn 1.000000 0.000000 0.000000
vn 1.000000 0.000000 0.000000
vn 1.000000 0.000000 0.000000
vn 1.000000 0.000000 0.000000
vn 1.000000 0.000000 0.000000
vn -1.000000 0.000000 0.000000
vn -1.000000 0.000000 0.000000
vn -1.000000 0.000000 0.000000
vn -1.000000 0.000000 0.000000
vn -1.000000 0.000000 0.000000
vn -1.000000 0.000000 0.000000
vn 0.000000 0.000000 -1.000000
vn 0.000000 0.000000 -1.000000
vn 0.000000 0.000000 -1.000000
vn 0.000000 0.000000 -1.000000
vn 0.000000 0.000000 -1.000000
vn 0.000000 0.000000 -1.000000
vn 0.000000 -1.000000 0.000000
vn 0.000000 -1.000000 0.000000
vn 0.000000 -1.000000 0.000000
vn 0.000000 -1.000000 0.000000
vn 0.000000 -1.000000 0.000000
vn 0.000000 -1.000000 0.000000
vn 0.000000 0.000000 1.000000
vn 0.000000 0.000000 1.000000
vn 0.000000 0.000000 1.000000
vn 0.000000 0.000000 1.000000
vn 0.000000 0.000000 1.000000
vn 0.000000 0.000000 1.000000
vn 0.000000 1.000000 0.000000
vn 0.000000 1.000000 0.000000
vn 0.000000 1.000000 0.000000
vn 0.000000 1.000000 0.000000
vn 0.000000 1.000000 0.000000
vn 0.000000 1.000000 0.000000
vn 1.000000 0.000000 0.000000
vn 1.000000 0.000000 0.000000
vn 1.000000 0.000000 0.000000
vn 1.000000 0.000000 0.000000
vn 1.000000 0.000000 0.000000
vn 1.000000 0.000000 0.000000
vn -1.000000 0.000000 0.000000
vn -1.000000 0.000000 0.000000
vn -1.000000 0.000000 0.000000
vn -1.000000 0.000000 0.000000
vn -1.000000 0.000000 0.000000
vn -1.000000 0.000000 0.000000
vn 0.000000 0.000000 -1.000000
vn 0.000000 0.000000 -1.000000
vn 0.000000 0.000000 -1.000000
vn 0.000000 0.000000 -1.000000
vn 0.000000 0.000000 -1.000000
vn 0.000000 0.000000 -1.000000
vn 0.000000 -1.000000 0.000000
vn 0.000000 -1.000000 0.000000
vn 0.000000 -1.000000 0.000000
vn 0.000000 -1.000000 0.000000
vn 0.000000 -1.000000 0.000000
vn 0.000000 -1.000000 0.000000
s off
g imm4:IVCON
usemtl imm4:initialShadingGroup
f 1//1 5//2 7//3
f 1//4 7//5 3//6
f 1//7 2//8 6//9
f 1//10 6//11 5//12
f 1//13 3//14 4//15
f 1//16 4//17 2//18
f 5//19 6//20 8//21
f 5//22 8//23 7//24
f 2//25 4//26 8//27
f 2//28 8//29 6//30
f 3//31 7//32 8//33
f 3//34 8//35 4//36
f 9//37 13//38 15//39
f 9//40 15//41 11//42
f 9//43 10//44 14//45
f 9//46 14//47 13//48
f 9//49 11//50 12//51
f 9//52 12//53 10//54
f 13//55 14//56 16//57
f 13//58 16//59 15//60
f 10//61 12//62 16//63
f 10//64 16//65 14//66
f 11//67 15//68 16//69
f 11//70 16//71 12//72
f 17//73 21//74 23//75
f 17//76 23//77 19//78
f 17//79 18//80 22//81
f 17//82 22//83 21//84
f 17//85 19//86 20//87
f 17//88 20//89 18//90
f 21//91 22//92 24//93
f 21//94 24//95 23//96
f 18//97 20//98 24//99
f 18//100 24//101 22//102
f 19//103 23//104 24//105
f 19//106 24//107 20//108
