/* XPM */
static const char * Camera[] = {
/* columns rows colors chars-per-pixel */
"39 34 31 1",
"  c black",
". c #000011",
"X c #001100",
"o c #111111",
"O c #003300",
"+ c #222222",
"@ c gray20",
"# c #003366",
"$ c #336633",
"% c #336666",
"& c #444444",
"* c #555555",
"= c #777777",
"- c #663399",
"; c #6633ff",
": c #339999",
"> c #9900ff",
", c #9966cc",
"< c #888888",
"1 c gray60",
"2 c #aaaaaa",
"3 c #bbbbbb",
"4 c #9999ff",
"5 c #99cccc",
"6 c gray80",
"7 c #dddddd",
"8 c #ccccff",
"9 c #ccffff",
"0 c #eeeeee",
"q c white",
"w c None",
/* pixels */
"wwwwwwwwwwwwwwwwwwwwwwwwwwwwwwwwwwwwwww",
"wwwwwwwwwwwwwwwwwwwwwwwwwwwwwwwwwwwwwww",
"wwwwwwwwwwwwww          wwwwwwwwwwwwwww",
"wwwwwwwwwwwww            wwwwwwwwwwwwww",
"wwwwwwwwwwww   q77700q3   w    wwwwwwww",
"wwwwww   w    q7qq000062  w     wwwwwww",
"wwwww         q=<<1<<<12    &&+  wwwwww",
"wwwww  *+ +*+ 7<1122133=          wwwww",
"wwww  030000 712      2=< 0000q7  wwwww",
"wwww  <=<266 7   ...o   < 6620q2  wwwww",
"     02=<223   ..ooo.oo   2620q2  wwwww",
"     =&+oooo  .o+    .oo  oooo o  wwwww",
"      1*****  .+ ,>-  .o  ****&+  wwwww",
"wwww  @o@ooo .o ,84;   oo oo+@o+  wwwww",
"wwww  @o@ooo .o >4;  #$ + o++@o+  wwwww",
"wwww  @o@oo+ o. -;  :%$ @ o++@o+  wwwww",
"wwww  @o@oo+ oo    :95O & o++@o+  wwwww",
"wwww  @o@oo+  o.  #%5$ =+ o++@o+  wwwww",
"wwww  @o@oo++ oo. $$O 2< Xoo+@o+  wwwww",
"wwww  oooooooo +@oo  <2 .XXooo o  wwwww",
"wwww  2=<22363<  @@&=& <363220q2  wwwww",
"wwww                              wwwww",
"wwwww                            wwwwww",
"wwwwwwwwwwwwwwwwwwwwwwwwwwwwwwwwwwwwwww",
"wwwwwwwwwwwwwwwwwwwwwwwwwwwwwwwwwwwwwww",
"wwwwwwwwwwwwwwwwwwwwwwwwwwwwwwwwwwwwwww",
"wwwoooowwooowwoowwwoowoooowoooowwooowww",
"woowwwwwoowoowooowooowoowwwoowowoowwoow",
"woowwwwwooooowoowowoowoooowooowwoooooow",
"woowwwwwooooowoowwwoowoooowoowowoooooow",
"woowwwwwoowoowoowwwoowoowwwoowowoowwoow",
"woowwwwwoowoowoowwwoowoowwwoowowoowwoow",
"wwwooowwoowoowoowwwoowoooowoowowoowwoow",
"wwwwwwwwwwwwwwwwwwwwwwwwwwwwwwwwwwwwwww"
};
