/* XPM */
static const char * icon_pallet[] = {
/* columns rows colors chars-per-pixel */
"32 32 87 1",
"  c black",
". c #000800",
"X c #082018",
"o c #290018",
"O c #293029",
"+ c #292073",
"@ c #293073",
"# c #520018",
"$ c #520029",
"% c #523008",
"& c #523018",
"* c #422029",
"= c #523029",
"- c #632018",
"; c #633008",
": c #633018",
"> c #730842",
", c #732042",
"< c #732052",
"1 c #524118",
"2 c #424129",
"3 c #524129",
"4 c #525129",
"5 c #524152",
"6 c #525152",
"7 c #634142",
"8 c #635152",
"9 c #636152",
"0 c #0830ff",
"q c #0041ff",
"w c #840042",
"e c #b50063",
"r c #847142",
"t c #847152",
"y c #946152",
"u c #947142",
"i c #947152",
"p c #b55163",
"a c #a57152",
"s c #b57152",
"d c #a57163",
"f c #de3063",
"g c #ff0073",
"h c #ff0873",
"j c #de7129",
"k c #ff4100",
"l c #ff5100",
"z c #de7142",
"x c #ef7142",
"c c #8408ff",
"v c #9408ff",
"b c #948652",
"n c #a58652",
"m c #a59652",
"M c #b58652",
"N c #b59652",
"B c #a58663",
"V c #a59663",
"C c #b58663",
"Z c #b59663",
"A c #b59673",
"S c #b5ae63",
"D c #de8642",
"F c #ce8663",
"G c #ce9663",
"H c #ce9673",
"J c #de9663",
"K c #de9673",
"L c #ceae63",
"P c #ceae73",
"I c #deae63",
"U c #deae73",
"Y c #debe73",
"T c #efbe52",
"R c #ffbe52",
"E c #efae73",
"W c #efbe73",
"Q c #ffdf00",
"! c #ffef00",
"~ c #84beb5",
"^ c #94beb5",
"/ c #a5aea5",
"( c #efae84",
") c #efbe84",
"_ c #ffdfb5",
"` c #deefff",
"' c white",
/* pixels */
"                   UU           ",
"             EYUUJUJKKL6        ",
"          )(YYKUIYUULLHH6       ",
"       )WYE(YYUJUhghhhhHL66     ",
"     )WWEkkkkkkUUhhhhhhGHG6     ",
"    )(EWElkllklIKhhhhhhGGGN6    ",
"   )WW)EUkllkllULhghhhhHNZH6    ",
"   )EI(EYlllkllULhhghhgGZZZn6   ",
"   W(EIYElkllkkLKhhhhhhNFFZZn   ",
"  W!QQQ!UUUIKKLLHKGGGhNZFGNNB   ",
" W)Q!!Q!YYUULLHHLLHpfwAcccccV   ",
" Y(!!!!QUPJULLHHN7<eh3Vvccvvm6  ",
" EY!QQ!QUKLLKHLN8,>wh=Vccvccn6  ",
" EY!QQ!!KKLLKJG4* ##>=VcccccBs6 ",
" YK!!Q!QPLHHLLMOX o$w3Ccccccnb6 ",
" YUUJLUUGLHHLSC ..o 22CnmmBBbb6 ",
" UIUUKILKKLGGG9  ..1=CnbCCbbdun ",
"  UIKKLLHHGG6`' 5=33=Cbqq0qq0ib ",
"   KPLHHLLH6~~@6m23CVmBqqqqqqbi ",
"   ULLHHLN6`~X@33VCnnBnqqqqqqbu ",
"    KHLGG6^~++n3=CnbCCnqq0qq0ui ",
"       G:_/.@=3mCCbbCsnqqqqqqu6 ",
"       :DR_@m33CVnBnnbBqqqqqqbi ",
"      :_T%632VCnmmBBbbnibbuibt6 ",
"     :jRx6/n=CnbCCbnu   auuuit  ",
"    -_R&666  Cnnnnbn 6   aiut6  ",
"   :DTz6'66   BBmbBn     biit6  ",
"  :_R&666      Bbbnu     iiir   ",
" -jRx6'66       dabba    turt   ",
":_R;666          6biauuuytr     ",
"DRz6'66           6aiiiitr      ",
"T%666               66    6     "
};
